<?xml version="1.0" encoding="utf-8"?>
<!-- Generator: Adobe Illustrator 16.0.0, SVG Export Plug-In . SVG Version: 6.00 Build 0)  -->
<!DOCTYPE svg PUBLIC "-//W3C//DTD SVG 1.1//EN" "http://www.w3.org/Graphics/SVG/1.1/DTD/svg11.dtd">
<svg version="1.1" id="Layer_1" xmlns="http://www.w3.org/2000/svg" xmlns:xlink="http://www.w3.org/1999/xlink" x="0px" y="0px"
	 width="476.703px" height="206.473px" viewBox="0 0 476.703 206.473" enable-background="new 0 0 476.703 206.473"
	 xml:space="preserve">
<g>
	<g>
		<defs>
			<rect id="SVGID_1_" x="-288.784" y="688.239" width="1026" height="775"/>
		</defs>
		<clipPath id="SVGID_2_">
			<use xlink:href="#SVGID_1_"  overflow="visible"/>
		</clipPath>
		<g clip-path="url(#SVGID_2_)">
			
				<image overflow="visible" enable-background="new    " width="1914" height="1076" xlink:href="702EFFFA.jpeg"  transform="matrix(0.7198 0 0 0.7203 -504.7842 688.2395)">
			</image>
		</g>
	</g>
</g>
<rect x="-288.784" y="688.239" opacity="0.5" enable-background="new    " width="1026" height="775"/>
<g>
	<g>
		<path d="M-1186.511-3.384c0-2.516,1.16-3.777,3.479-3.777c0.575,0.195,1.347,2.137,2.313,5.811
			c0.964,3.685,1.929,8.281,2.896,13.805c0.961,5.519,1.979,11.619,3.038,18.305c1.066,6.683,2.029,13.072,2.902,19.174
			c0.865,6.104,1.638,11.526,2.313,16.272c0.674,4.75,1.106,7.989,1.306,9.732l11.896-1.453c0.967,0,1.788,0.293,2.469,0.87
			c0.68,0.583,1.021,1.357,1.021,2.327s-0.63,1.79-1.89,2.469c-1.263,0.681-2.714,1.214-4.358,1.6
			c-1.647,0.391-3.245,0.681-4.788,0.869c-1.551,0.194-2.711,0.391-3.484,0.582c1.93,7.36,2.994,15.399,3.186,24.116
			c0.191,8.716,0.291,16.853,0.291,24.404c0,4.651-0.143,10.124-0.432,16.416c-0.291,6.292-0.965,12.735-2.029,19.321
			c-1.062,6.583-2.508,13.17-4.342,19.76c-1.838,6.583-4.35,12.394-7.533,17.433c-3.188,5.032-7.094,9.15-11.726,12.349
			c-4.636,3.193-10.136,4.793-16.515,4.793c-8.105,0-15.107-2.567-20.996-7.7c-5.887-5.134-10.808-11.476-14.768-19.031
			c-3.958-7.556-6.854-15.542-8.688-23.968c-1.833-8.427-2.752-16.032-2.752-22.811c0-12.588,1.979-22.997,5.94-31.233
			c3.959-8.231,9.354-14.913,16.215-20.049c6.852-5.129,14.912-9.149,24.184-12.057c9.264-2.903,19.208-5.423,29.83-7.553
			c-0.58-6.584-1.358-13.265-2.319-20.051c-0.968-6.779-1.934-13.605-2.896-20.483c-0.965-6.872-1.835-13.653-2.604-20.337
			C-1186.124,9.835-1186.511,3.203-1186.511-3.384z M-1176.704,84.944c-8.717,1.743-17.044,3.974-24.985,6.683
			c-7.945,2.714-14.87,6.44-20.774,11.188c-5.912,4.748-10.604,10.605-14.095,17.577c-3.481,6.973-5.228,15.499-5.228,25.568
			c0,5.034,0.623,11.139,1.887,18.306c1.26,7.163,3.341,14.042,6.25,20.627c2.904,6.583,6.582,12.252,11.037,17
			c4.455,4.743,9.883,7.118,16.272,7.118c5.036,0,9.299-1.6,12.782-4.795c3.49-3.196,6.393-7.265,8.717-12.204
			c2.327-4.937,4.166-10.559,5.519-16.851c1.356-6.298,2.327-12.494,2.911-18.597c0.58-6.102,0.964-11.914,1.163-17.433
			c0.19-5.522,0.29-10.023,0.29-13.51c0-5.617-0.341-11.428-1.022-17.436c-0.68-6.002-1.015-11.91-1.015-17.724
			c0-0.965,0-1.887,0-2.761C-1176.995,86.832-1176.899,85.917-1176.704,84.944z"/>
	</g>
	<g>
		<path d="M-1163.023,76.997c0.39-0.965,1.84-1.838,4.358-2.614c2.516-0.772,5.324-1.454,8.429-2.032
			c3.093-0.582,6.049-1.02,8.858-1.31c2.806-0.29,4.696-0.436,5.668-0.436c1.547,0,2.318,0.871,2.318,2.613l-1.74,2.904
			c-7.361,2.521-15.104,3.777-23.24,3.777c-0.975,0-1.988-0.146-3.052-0.435C-1162.488,79.177-1163.023,78.356-1163.023,76.997z
			 M-1155.468,33.995c1.932,0,3.194,1.844,3.775,5.521c0.584,3.685,0.873,8.234,0.873,13.656c0,3.877-0.049,7.992-0.148,12.346
			c-0.1,4.359-0.141,8.672-0.141,12.935c0,7.36,0.48,13.753,1.449,19.176c0.967,5.423,3.096,8.132,6.395,8.132
			c2.323,0,4.887-0.722,7.696-2.176c2.809-1.456,5.422-3.099,7.846-4.941c2.419-1.838,4.506-3.485,6.25-4.938
			c1.741-1.453,2.804-2.182,3.193-2.182c2.519,0,3.779,1.067,3.779,3.195c0,1.359-1.41,3.195-4.213,5.522
			c-2.81,2.322-6.01,4.553-9.59,6.683c-3.586,2.134-7.17,4.021-10.746,5.662c-3.59,1.647-6.25,2.474-7.996,2.474
			c-2.9,0-5.186-0.874-6.824-2.618c-1.651-1.74-2.909-3.965-3.78-6.683c-0.871-2.709-1.45-5.709-1.742-9.005
			c-0.291-3.291-0.436-6.391-0.436-9.3c0-1.933,0.046-3.675,0.145-5.229c0.096-1.551,0.146-2.904,0.146-4.067
			c0-0.968-0.05-2.564-0.146-4.796c-0.099-2.224-0.145-4.791-0.145-7.698c0-3.291,0.046-6.828,0.145-10.605
			c0.096-3.776,0.291-7.213,0.583-10.313c0.287-3.097,0.729-5.663,1.31-7.698C-1157.211,35.013-1156.44,33.995-1155.468,33.995z"/>
	</g>
</g>
<g>
	<path fill="#FFFFFF" d="M58.513,10.372c0-2.188,1.011-3.288,3.03-3.288c0.502,0.168,1.173,1.855,2.016,5.061
		c0.838,3.206,1.682,7.211,2.522,12.019c0.84,4.812,1.724,10.122,2.65,15.943c0.924,5.816,1.764,11.385,2.523,16.698
		c0.752,5.314,1.426,10.038,2.014,14.17c0.585,4.141,0.967,6.957,1.136,8.476l10.362-1.266c0.843,0,1.558,0.256,2.151,0.762
		c0.589,0.504,0.886,1.184,0.886,2.024c0,0.844-0.551,1.563-1.646,2.15c-1.098,0.591-2.362,1.054-3.795,1.391
		c-1.436,0.342-2.828,0.594-4.173,0.762c-1.347,0.169-2.359,0.338-3.031,0.503c1.681,6.414,2.605,13.41,2.776,21.005
		c0.164,7.591,0.253,14.677,0.253,21.257c0,4.046-0.127,8.814-0.38,14.293c-0.255,5.481-0.84,11.09-1.763,16.827
		c-0.928,5.733-2.186,11.469-3.784,17.204c-1.598,5.733-3.784,10.794-6.56,15.188c-2.775,4.382-6.179,7.968-10.212,10.751
		c-4.036,2.784-8.829,4.173-14.378,4.173c-7.063,0-13.16-2.234-18.289-6.703c-5.125-4.472-9.411-9.995-12.861-16.574
		c-3.446-6.579-5.969-13.537-7.564-20.872C0.798,154.982,0,148.361,0,142.458c0-10.962,1.724-20.032,5.171-27.202
		c3.448-7.167,8.154-12.986,14.123-17.458c5.971-4.468,12.988-7.97,21.062-10.502c8.07-2.532,16.728-4.72,25.979-6.579
		c-0.505-5.733-1.183-11.555-2.019-17.458c-0.844-5.903-1.688-11.849-2.523-17.842c-0.844-5.987-1.598-11.894-2.269-17.71
		C58.852,21.887,58.513,16.11,58.513,10.372z M67.056,87.296c-7.592,1.518-14.848,3.457-21.764,5.818
		c-6.918,2.365-12.946,5.607-18.092,9.741c-5.147,4.138-9.233,9.235-12.271,15.309c-3.037,6.073-4.554,13.499-4.554,22.271
		c0,4.382,0.546,9.698,1.644,15.938c1.095,6.237,2.91,12.231,5.438,17.965c2.533,5.729,5.734,10.669,9.617,14.805
		c3.876,4.129,8.604,6.199,14.169,6.199c4.384,0,8.098-1.391,11.133-4.177c3.039-2.781,5.569-6.325,7.592-10.626
		c2.025-4.303,3.626-9.198,4.808-14.68c1.178-5.479,2.025-10.878,2.53-16.189c0.505-5.316,0.843-10.375,1.015-15.186
		c0.163-4.806,0.25-8.728,0.25-11.765c0-4.89-0.296-9.949-0.885-15.183c-0.594-5.227-0.885-10.374-0.885-15.438
		c0-0.84,0-1.643,0-2.401C66.802,88.938,66.885,88.142,67.056,87.296z"/>
	<path fill="#FFFFFF" d="M106.779,100.201c0.843-1.854,2.278-2.785,4.304-2.785c2.023,0,3.371,0.72,4.048,2.153
		c0.671,1.433,1.011,3.077,1.011,4.934s-0.127,3.63-0.379,5.313c-0.252,1.688-0.379,3.036-0.379,4.051
		c0,1.353,0.127,3.08,0.379,5.186c0.252,2.11,0.673,4.137,1.266,6.076c0.589,1.938,1.475,3.626,2.657,5.061
		c1.178,1.431,2.781,2.149,4.806,2.149c1.857,0,3.835-0.636,5.947-1.897c2.108-1.267,4.09-2.654,5.947-4.177
		c1.854-1.52,3.54-2.908,5.06-4.175c1.519-1.268,2.697-1.897,3.543-1.897c1.518,0,2.277,0.761,2.277,2.277
		c0,1.353-1.056,2.999-3.163,4.932c-2.111,1.942-4.555,3.845-7.339,5.696c-2.783,1.859-5.609,3.46-8.474,4.806
		c-2.872,1.354-5.149,2.026-6.834,2.026c-2.872,0-5.314-1.013-7.338-3.037c-2.022-2.024-3.713-4.215-5.061-6.582
		c-1.519,1.861-3.333,3.801-5.441,5.822c-2.11,2.021-4.513,3.037-7.21,3.037c-1.52,0-2.784-0.462-3.797-1.39
		c-1.013-0.927-1.814-2.111-2.403-3.548c-0.592-1.429-1.012-2.907-1.265-4.424c-0.253-1.518-0.38-2.868-0.38-4.05
		c0-1.854,0.334-4.257,1.011-7.212c0.672-2.952,1.687-5.822,3.037-8.604c1.349-2.782,2.993-5.143,4.935-7.085
		c1.938-1.938,4.177-2.91,6.707-2.91C105.261,99.946,106.104,100.033,106.779,100.201z M104.756,106.527
		c-2.872,1.685-4.896,4.304-6.074,7.845c-1.182,3.54-1.687,6.919-1.518,10.12l0.253,4.808c2.362-1.35,4.342-3.625,5.947-6.831
		c1.599-3.202,2.404-6.236,2.404-9.109v-6.324L104.756,106.527z"/>
	<path fill="#FFFFFF" d="M161.94,94.886c0.506,0,1.266,0.253,2.279,0.762c1.011,0.506,1.936,1.138,2.783,1.896
		c0.841,0.76,1.601,1.52,2.277,2.281c0.672,0.757,1.01,1.389,1.01,1.896c0,1.516-0.972,3.5-2.908,5.945
		c-1.94,2.443-4.093,4.853-6.452,7.212c-2.366,2.362-4.599,4.555-6.706,6.579c-2.112,2.024-3.25,3.372-3.418,4.046
		c0.168,1.015,0.719,1.858,1.647,2.534c0.923,0.672,1.981,1.223,3.162,1.643c1.178,0.424,2.403,0.719,3.668,0.884
		c1.267,0.173,2.233,0.253,2.912,0.253c4.213,0,7.927-0.544,11.132-1.644c3.203-1.094,5.945-2.361,8.225-3.797
		c2.276-1.432,4.086-2.697,5.438-3.795c1.349-1.096,2.279-1.645,2.784-1.645c1.179,0,1.771,0.758,1.771,2.276
		c-0.846,2.362-2.403,4.557-4.683,6.579c-2.275,2.022-4.894,3.755-7.843,5.186c-2.953,1.437-5.945,2.577-8.982,3.417
		c-3.035,0.848-5.734,1.268-8.098,1.268c-2.024,0-4.26-0.211-6.707-0.635c-2.446-0.416-4.766-1.138-6.957-2.149
		c-2.192-1.013-4.05-2.404-5.565-4.177c-1.52-1.768-2.278-3.917-2.278-6.452c0-1.521,0.886-3.199,2.656-5.06
		c1.773-1.853,3.797-3.837,6.074-5.948c2.277-2.106,4.555-4.174,6.83-6.197c2.279-2.025,3.836-3.961,4.683-5.816
		c-2.024,0.338-4.048,0.629-6.073,0.883c-2.024,0.254-4.049,0.379-6.072,0.379c-0.847,0-2.068-0.083-3.668-0.253
		c-1.606-0.161-2.404-0.924-2.404-2.274l2.023-2.783c3.202,0,6.281-0.547,9.236-1.646C156.666,95.437,159.411,94.886,161.94,94.886z
		"/>
	<path fill="#FFFFFF" d="M206.475,94.886c0.507,0,1.266,0.253,2.279,0.762c1.011,0.506,1.937,1.138,2.781,1.896
		c0.843,0.76,1.603,1.52,2.279,2.281c0.671,0.757,1.011,1.389,1.011,1.896c0,1.516-0.971,3.5-2.908,5.945
		c-1.943,2.443-4.094,4.853-6.453,7.212c-2.364,2.362-4.598,4.555-6.707,6.579c-2.109,2.024-3.249,3.372-3.416,4.046
		c0.167,1.015,0.718,1.858,1.645,2.534c0.925,0.672,1.982,1.223,3.164,1.643c1.178,0.424,2.403,0.719,3.668,0.884
		c1.266,0.173,2.236,0.253,2.912,0.253c4.213,0,7.926-0.544,11.133-1.644c3.204-1.094,5.945-2.361,8.225-3.797
		c2.275-1.432,4.086-2.697,5.438-3.795c1.349-1.096,2.279-1.645,2.785-1.645c1.178,0,1.77,0.758,1.77,2.276
		c-0.843,2.362-2.402,4.557-4.682,6.579c-2.275,2.022-4.893,3.755-7.843,5.186c-2.954,1.437-5.945,2.577-8.982,3.417
		c-3.037,0.848-5.736,1.268-8.098,1.268c-2.024,0-4.261-0.211-6.706-0.635c-2.445-0.416-4.766-1.138-6.956-2.149
		c-2.196-1.013-4.05-2.404-5.567-4.177c-1.52-1.768-2.277-3.917-2.277-6.452c0-1.521,0.885-3.199,2.655-5.06
		c1.772-1.853,3.799-3.837,6.074-5.948c2.277-2.106,4.555-4.174,6.832-6.197c2.277-2.025,3.833-3.961,4.681-5.816
		c-2.025,0.338-4.046,0.629-6.07,0.883c-2.025,0.254-4.05,0.379-6.075,0.379c-0.847,0-2.068-0.083-3.669-0.253
		c-1.605-0.161-2.403-0.924-2.403-2.274l2.022-2.783c3.203,0,6.284-0.547,9.237-1.646C201.2,95.437,203.944,94.886,206.475,94.886z"
		/>
	<path fill="#FFFFFF" d="M260.624,107.791c0.338-0.842,1.604-1.599,3.793-2.277c2.192-0.671,4.64-1.264,7.34-1.771
		c2.695-0.506,5.271-0.886,7.718-1.139c2.442-0.254,4.088-0.376,4.936-0.376c1.349,0,2.021,0.758,2.021,2.275l-1.518,2.53
		c-6.414,2.19-13.157,3.287-20.244,3.287c-0.845,0-1.727-0.128-2.654-0.38C261.089,109.688,260.624,108.973,260.624,107.791z
		 M267.204,70.344c1.683,0,2.78,1.606,3.287,4.806c0.506,3.208,0.759,7.175,0.759,11.893c0,3.381-0.044,6.96-0.128,10.757
		c-0.085,3.792-0.125,7.549-0.125,11.26c0,6.413,0.42,11.979,1.265,16.7c0.842,4.724,2.696,7.085,5.567,7.085
		c2.024,0,4.257-0.633,6.707-1.896c2.442-1.267,4.719-2.699,6.83-4.304c2.108-1.603,3.923-3.035,5.44-4.302
		c1.517-1.267,2.443-1.897,2.781-1.897c2.189,0,3.29,0.928,3.29,2.782c0,1.185-1.226,2.785-3.669,4.813
		c-2.447,2.02-5.23,3.962-8.35,5.818c-3.125,1.854-6.244,3.503-9.363,4.935c-3.123,1.429-5.438,2.15-6.957,2.15
		c-2.53,0-4.516-0.76-5.947-2.278c-1.438-1.521-2.529-3.453-3.287-5.819c-0.761-2.361-1.267-4.973-1.52-7.847
		c-0.254-2.866-0.381-5.563-0.381-8.095c0-1.685,0.041-3.203,0.127-4.559c0.084-1.345,0.127-2.528,0.127-3.539
		c0-0.841-0.043-2.235-0.127-4.175c-0.086-1.94-0.127-4.177-0.127-6.705c0-2.866,0.041-5.946,0.127-9.238
		c0.084-3.288,0.254-6.279,0.507-8.981c0.253-2.695,0.631-4.934,1.14-6.703C265.686,71.227,266.355,70.344,267.204,70.344z"/>
	<path fill="#FFFFFF" d="M311.479,105.007c3.373,0.34,6.617,0.507,9.742,0.507c3.12,0,6.283,0,9.489,0h12.903
		c1.351,0,2.023,0.505,2.023,1.521c-0.846,1.856-2.742,3.076-5.693,3.67c-2.952,0.592-5.86,0.883-8.729,0.883
		c-1.181,0-2.276-0.038-3.29-0.125c-1.012-0.086-1.857-0.128-2.529-0.128c2.529,3.379,3.795,7.258,3.795,11.641
		c0,5.23-1.643,9.405-4.933,12.524c-3.29,3.125-7.465,4.684-12.526,4.684c-2.53,0-4.723-0.549-6.578-1.646
		c-1.856-1.097-3.332-2.486-4.428-4.173c-1.1-1.688-1.898-3.627-2.404-5.822c-0.506-2.189-0.76-4.384-0.76-6.577
		c0-1.521,0.127-3.417,0.379-5.694c0.254-2.277,0.761-4.512,1.521-6.705c0.758-2.191,1.772-4.086,3.037-5.693
		c1.266-1.601,2.907-2.403,4.935-2.403c0.672,0,1.43,0.376,2.274,1.138c0.844,0.761,1.432,1.479,1.771,2.15v0.25H311.479z
		 M305.152,113.105l-0.252,4.05c0,0.843,0.039,2.066,0.125,3.666c0.084,1.604,0.38,3.164,0.888,4.683
		c0.503,1.52,1.138,2.828,1.896,3.923c0.76,1.1,1.729,1.643,2.912,1.643c2.866,0,5.354-1.092,7.463-3.283
		c2.108-2.193,3.162-4.725,3.162-7.595c0-2.025-0.593-3.455-1.771-4.302c-1.183-0.844-2.657-1.395-4.429-1.646
		c-1.77-0.251-3.586-0.376-5.44-0.376C307.85,113.865,306.333,113.611,305.152,113.105z"/>
	<path fill="#FFFFFF" d="M338.3,107.791c0.339-0.842,1.604-1.599,3.793-2.277c2.192-0.671,4.638-1.264,7.339-1.771
		c2.696-0.506,5.271-0.886,7.717-1.139c2.444-0.254,4.09-0.376,4.938-0.376c1.35,0,2.021,0.758,2.021,2.275l-1.519,2.53
		c-6.413,2.19-13.157,3.287-20.243,3.287c-0.847,0-1.727-0.128-2.654-0.38C338.766,109.688,338.3,108.973,338.3,107.791z
		 M344.878,70.344c1.685,0,2.783,1.606,3.29,4.806c0.503,3.208,0.758,7.175,0.758,11.893c0,3.381-0.044,6.96-0.128,10.757
		c-0.085,3.792-0.127,7.549-0.127,11.26c0,6.413,0.422,11.979,1.267,16.7c0.842,4.724,2.696,7.085,5.567,7.085
		c2.024,0,4.257-0.633,6.705-1.896c2.444-1.267,4.722-2.699,6.831-4.304c2.107-1.603,3.924-3.035,5.439-4.302
		c1.52-1.267,2.443-1.897,2.785-1.897c2.188,0,3.289,0.928,3.289,2.782c0,1.185-1.228,2.785-3.672,4.813
		c-2.445,2.02-5.229,3.962-8.347,5.818c-3.126,1.854-6.245,3.503-9.364,4.935c-3.122,1.429-5.439,2.15-6.957,2.15
		c-2.529,0-4.516-0.76-5.947-2.278c-1.436-1.521-2.529-3.453-3.289-5.819c-0.761-2.361-1.264-4.973-1.517-7.847
		c-0.255-2.866-0.382-5.563-0.382-8.095c0-1.685,0.04-3.203,0.127-4.559c0.084-1.345,0.127-2.528,0.127-3.539
		c0-0.841-0.043-2.235-0.127-4.175c-0.087-1.94-0.127-4.177-0.127-6.705c0-2.866,0.04-5.946,0.127-9.238
		c0.084-3.288,0.255-6.279,0.508-8.981c0.252-2.695,0.63-4.934,1.137-6.703C343.359,71.227,344.031,70.344,344.878,70.344z"/>
	<path fill="#FFFFFF" d="M393.456,100.201c0.844-1.854,2.274-2.785,4.301-2.785c2.024,0,3.373,0.72,4.05,2.153
		c0.672,1.433,1.012,3.077,1.012,4.934s-0.129,3.63-0.379,5.313c-0.254,1.688-0.381,3.036-0.381,4.051
		c0,1.353,0.127,3.08,0.381,5.186c0.25,2.11,0.672,4.137,1.266,6.076c0.589,1.938,1.477,3.626,2.656,5.061
		c1.179,1.431,2.783,2.149,4.807,2.149c1.855,0,3.835-0.636,5.947-1.897c2.107-1.267,4.088-2.654,5.946-4.177
		c1.854-1.52,3.542-2.908,5.061-4.175c1.518-1.268,2.695-1.897,3.542-1.897c1.518,0,2.277,0.761,2.277,2.277
		c0,1.353-1.057,2.999-3.162,4.932c-2.112,1.942-4.556,3.845-7.34,5.696c-2.782,1.859-5.608,3.46-8.476,4.806
		c-2.87,1.354-5.147,2.026-6.832,2.026c-2.872,0-5.313-1.013-7.338-3.037s-3.713-4.215-5.063-6.582
		c-1.516,1.861-3.33,3.801-5.438,5.822c-2.11,2.021-4.515,3.037-7.211,3.037c-1.521,0-2.782-0.462-3.795-1.39
		c-1.013-0.927-1.815-2.111-2.402-3.548c-0.597-1.429-1.015-2.907-1.268-4.424c-0.253-1.518-0.38-2.868-0.38-4.05
		c0-1.854,0.336-4.257,1.013-7.212c0.671-2.952,1.687-5.822,3.037-8.604c1.349-2.782,2.991-5.143,4.934-7.085
		c1.938-1.938,4.177-2.91,6.707-2.91C391.938,99.946,392.779,100.033,393.456,100.201z M391.432,106.527
		c-2.869,1.685-4.895,4.304-6.074,7.845c-1.182,3.54-1.687,6.919-1.519,10.12l0.253,4.808c2.363-1.35,4.344-3.625,5.947-6.831
		c1.602-3.202,2.404-6.236,2.404-9.109v-6.324L391.432,106.527z"/>
	<path fill="#FFFFFF" d="M437.65,121.963c1.004,2.699,2.431,5.273,4.276,7.717c1.843,2.447,4.443,3.668,7.806,3.668
		c2.514,0,5.071-0.672,7.674-2.023c2.601-1.348,5.032-2.866,7.297-4.554c2.267-1.688,4.244-3.203,5.928-4.557
		c1.686-1.352,2.95-2.023,3.797-2.023c1.521,0,2.275,0.761,2.275,2.277s-1.227,3.334-3.668,5.438
		c-2.448,2.112-5.267,4.177-8.453,6.202c-3.192,2.021-6.422,3.715-9.695,5.06c-3.272,1.347-5.743,2.023-7.421,2.023
		c-3.692,0-6.927-1.476-9.692-4.428c-2.77-2.953-5.162-6.788-7.175-11.516c-2.016-4.722-3.649-9.993-4.908-15.813
		c-1.256-5.818-2.262-11.511-3.021-17.081c-0.75-5.566-1.255-10.793-1.51-15.685c-0.25-4.894-0.377-8.687-0.377-11.392
		c0-4.38,0.254-10.242,0.756-17.583c0.505-7.337,1.681-14.548,3.521-21.635c1.852-7.085,4.529-13.196,8.059-18.347
		C436.64,2.571,441.426,0,447.466,0c4.361,0,7.926,1.604,10.694,4.806c2.769,3.208,4.993,7.003,6.671,11.385
		c1.676,4.395,2.81,8.986,3.398,13.796c0.586,4.807,0.882,8.813,0.882,12.015c0,7.26-0.632,14.552-1.89,21.888
		c-1.258,7.339-3.187,14.513-5.787,21.511c-2.603,6.999-5.876,13.621-9.817,19.86C447.671,111.504,443.019,117.071,437.65,121.963z
		 M428.881,62.751c0,8.945,0.58,17.755,1.75,26.439c1.167,8.692,2.752,17.336,4.753,25.94c8.459-9.113,14.764-19.484,18.906-31.124
		s6.221-23.535,6.221-35.683c0-2.186-0.09-5.479-0.255-9.864c-0.169-4.386-0.72-8.729-1.644-13.031
		c-0.931-4.303-2.322-8.054-4.176-11.259c-1.859-3.206-4.39-4.812-7.592-4.812c-2.531,0-4.726,1.057-6.579,3.164
		c-1.856,2.11-3.461,4.853-4.808,8.228c-1.354,3.371-2.448,7.125-3.288,11.256c-0.848,4.137-1.52,8.185-2.025,12.146
		c-0.507,3.963-0.847,7.633-1.012,11.006C428.963,58.538,428.881,61.064,428.881,62.751z"/>
</g>
<g>
	<path fill="#FFFFFF" d="M60.513,962.372c0-2.188,1.011-3.288,3.03-3.288c0.502,0.168,1.173,1.856,2.016,5.061
		c0.838,3.206,1.682,7.211,2.522,12.019c0.84,4.812,1.724,10.122,2.65,15.944c0.924,5.815,1.764,11.384,2.523,16.697
		c0.752,5.314,1.426,10.038,2.014,14.17c0.585,4.141,0.967,6.957,1.136,8.476l10.362-1.266c0.843,0,1.558,0.257,2.151,0.763
		c0.589,0.503,0.886,1.183,0.886,2.023c0,0.844-0.551,1.563-1.646,2.15c-1.098,0.591-2.362,1.054-3.795,1.391
		c-1.436,0.342-2.828,0.594-4.173,0.762c-1.347,0.17-2.359,0.339-3.031,0.504c1.681,6.414,2.605,13.41,2.776,21.004
		c0.164,7.591,0.253,14.677,0.253,21.257c0,4.046-0.127,8.814-0.38,14.293c-0.255,5.481-0.84,11.09-1.763,16.827
		c-0.928,5.733-2.186,11.469-3.784,17.205c-1.598,5.732-3.784,10.793-6.56,15.187c-2.775,4.382-6.179,7.968-10.212,10.751
		c-4.036,2.784-8.829,4.173-14.378,4.173c-7.063,0-13.16-2.234-18.289-6.703c-5.125-4.472-9.411-9.995-12.861-16.573
		c-3.446-6.58-5.969-13.538-7.564-20.873c-1.6-7.34-2.397-13.961-2.397-19.864c0-10.962,1.724-20.032,5.171-27.202
		c3.448-7.167,8.154-12.986,14.123-17.458c5.971-4.468,12.988-7.97,21.062-10.502c8.07-2.532,16.728-4.72,25.979-6.579
		c-0.505-5.732-1.183-11.555-2.019-17.458c-0.844-5.903-1.688-11.849-2.523-17.842c-0.844-5.987-1.598-11.894-2.269-17.71
		C60.852,973.887,60.513,968.111,60.513,962.372z M69.056,1039.296c-7.592,1.519-14.848,3.457-21.764,5.818
		c-6.918,2.366-12.946,5.607-18.092,9.741c-5.147,4.138-9.233,9.235-12.271,15.309c-3.037,6.074-4.554,13.499-4.554,22.271
		c0,4.382,0.546,9.698,1.644,15.938c1.095,6.238,2.91,12.232,5.438,17.965c2.533,5.73,5.734,10.669,9.617,14.805
		c3.876,4.129,8.604,6.199,14.169,6.199c4.384,0,8.098-1.391,11.133-4.177c3.039-2.781,5.569-6.325,7.592-10.626
		c2.025-4.302,3.626-9.198,4.808-14.679c1.178-5.479,2.025-10.878,2.53-16.19c0.505-5.316,0.843-10.375,1.015-15.185
		c0.163-4.807,0.25-8.729,0.25-11.766c0-4.89-0.296-9.948-0.885-15.183c-0.594-5.227-0.885-10.374-0.885-15.438
		c0-0.84,0-1.643,0-2.401C68.802,1040.938,68.885,1040.142,69.056,1039.296z"/>
	<path fill="#FFFFFF" d="M108.779,1052.201c0.843-1.854,2.278-2.785,4.304-2.785c2.023,0,3.371,0.72,4.048,2.154
		c0.671,1.432,1.011,3.077,1.011,4.933c0,1.857-0.127,3.63-0.379,5.313c-0.252,1.688-0.379,3.035-0.379,4.05
		c0,1.353,0.127,3.081,0.379,5.186c0.252,2.11,0.673,4.138,1.266,6.076c0.589,1.938,1.475,3.626,2.657,5.062
		c1.178,1.43,2.781,2.148,4.806,2.148c1.857,0,3.835-0.636,5.947-1.896c2.108-1.268,4.09-2.655,5.947-4.177
		c1.854-1.521,3.54-2.908,5.06-4.176c1.519-1.267,2.697-1.896,3.543-1.896c1.518,0,2.277,0.76,2.277,2.276
		c0,1.354-1.056,3-3.163,4.933c-2.111,1.942-4.555,3.844-7.339,5.696c-2.783,1.858-5.609,3.46-8.474,4.806
		c-2.872,1.354-5.149,2.026-6.834,2.026c-2.872,0-5.314-1.014-7.338-3.037c-2.022-2.025-3.713-4.215-5.061-6.582
		c-1.519,1.86-3.333,3.801-5.441,5.822c-2.11,2.021-4.513,3.036-7.21,3.036c-1.52,0-2.784-0.462-3.797-1.389
		c-1.013-0.927-1.814-2.112-2.403-3.548c-0.592-1.429-1.012-2.908-1.265-4.424c-0.253-1.519-0.38-2.868-0.38-4.051
		c0-1.854,0.334-4.257,1.011-7.212c0.672-2.952,1.687-5.821,3.037-8.604c1.349-2.783,2.993-5.144,4.935-7.085
		c1.938-1.938,4.177-2.91,6.707-2.91C107.261,1051.947,108.104,1052.033,108.779,1052.201z M106.756,1058.528
		c-2.872,1.684-4.896,4.303-6.074,7.844c-1.182,3.54-1.687,6.919-1.518,10.12l0.253,4.808c2.362-1.35,4.342-3.625,5.947-6.831
		c1.599-3.202,2.404-6.235,2.404-9.108v-6.325L106.756,1058.528z"/>
	<path fill="#FFFFFF" d="M163.94,1046.886c0.506,0,1.266,0.253,2.279,0.763c1.011,0.506,1.936,1.137,2.783,1.896
		c0.841,0.76,1.601,1.521,2.277,2.281c0.672,0.757,1.01,1.389,1.01,1.896c0,1.517-0.972,3.5-2.908,5.945
		c-1.94,2.443-4.093,4.853-6.452,7.212c-2.366,2.362-4.599,4.555-6.706,6.579c-2.112,2.025-3.25,3.372-3.418,4.046
		c0.168,1.015,0.719,1.859,1.647,2.534c0.923,0.672,1.981,1.223,3.162,1.643c1.178,0.424,2.403,0.719,3.668,0.885
		c1.267,0.173,2.233,0.253,2.912,0.253c4.213,0,7.927-0.544,11.132-1.645c3.203-1.094,5.945-2.36,8.225-3.797
		c2.276-1.431,4.086-2.697,5.438-3.795c1.349-1.095,2.279-1.645,2.784-1.645c1.179,0,1.771,0.759,1.771,2.276
		c-0.846,2.362-2.403,4.557-4.683,6.579c-2.275,2.022-4.894,3.755-7.843,5.186c-2.953,1.437-5.945,2.577-8.982,3.417
		c-3.035,0.848-5.734,1.268-8.098,1.268c-2.024,0-4.26-0.211-6.707-0.635c-2.446-0.416-4.766-1.138-6.957-2.149
		c-2.192-1.013-4.05-2.404-5.565-4.177c-1.52-1.768-2.278-3.917-2.278-6.452c0-1.521,0.886-3.199,2.656-5.06
		c1.773-1.853,3.797-3.837,6.074-5.948c2.277-2.106,4.555-4.173,6.83-6.197c2.279-2.025,3.836-3.961,4.683-5.816
		c-2.024,0.338-4.048,0.629-6.073,0.884c-2.024,0.253-4.049,0.378-6.072,0.378c-0.847,0-2.068-0.083-3.668-0.252
		c-1.606-0.162-2.404-0.925-2.404-2.275l2.023-2.783c3.202,0,6.281-0.547,9.236-1.646
		C158.666,1047.438,161.411,1046.886,163.94,1046.886z"/>
	<path fill="#FFFFFF" d="M208.475,1046.886c0.507,0,1.266,0.253,2.279,0.763c1.011,0.506,1.937,1.137,2.781,1.896
		c0.843,0.76,1.603,1.521,2.279,2.281c0.671,0.757,1.011,1.389,1.011,1.896c0,1.517-0.971,3.5-2.908,5.945
		c-1.943,2.443-4.094,4.853-6.453,7.212c-2.364,2.362-4.598,4.555-6.707,6.579c-2.109,2.025-3.249,3.372-3.416,4.046
		c0.167,1.015,0.718,1.859,1.645,2.534c0.925,0.672,1.982,1.223,3.164,1.643c1.178,0.424,2.403,0.719,3.668,0.885
		c1.266,0.173,2.236,0.253,2.912,0.253c4.213,0,7.926-0.544,11.133-1.645c3.204-1.094,5.945-2.36,8.225-3.797
		c2.275-1.431,4.086-2.697,5.438-3.795c1.349-1.095,2.279-1.645,2.785-1.645c1.178,0,1.77,0.759,1.77,2.276
		c-0.843,2.362-2.402,4.557-4.682,6.579c-2.275,2.022-4.893,3.755-7.843,5.186c-2.954,1.437-5.945,2.577-8.982,3.417
		c-3.037,0.848-5.736,1.268-8.098,1.268c-2.024,0-4.261-0.211-6.706-0.635c-2.445-0.416-4.766-1.138-6.956-2.149
		c-2.196-1.013-4.05-2.404-5.567-4.177c-1.52-1.768-2.277-3.917-2.277-6.452c0-1.521,0.885-3.199,2.655-5.06
		c1.772-1.853,3.799-3.837,6.074-5.948c2.277-2.106,4.555-4.173,6.832-6.197c2.277-2.025,3.833-3.961,4.681-5.816
		c-2.025,0.338-4.046,0.629-6.07,0.884c-2.025,0.253-4.05,0.378-6.075,0.378c-0.847,0-2.068-0.083-3.669-0.252
		c-1.605-0.162-2.403-0.925-2.403-2.275l2.022-2.783c3.203,0,6.284-0.547,9.237-1.646
		C203.2,1047.438,205.944,1046.886,208.475,1046.886z"/>
	<path fill="#FFFFFF" d="M262.624,1059.791c0.338-0.842,1.604-1.598,3.793-2.277c2.192-0.671,4.64-1.264,7.34-1.771
		c2.695-0.505,5.271-0.885,7.718-1.138c2.442-0.255,4.088-0.376,4.936-0.376c1.349,0,2.021,0.758,2.021,2.274l-1.518,2.53
		c-6.414,2.191-13.157,3.288-20.244,3.288c-0.845,0-1.727-0.128-2.654-0.38C263.089,1061.688,262.624,1060.973,262.624,1059.791z
		 M269.204,1022.344c1.683,0,2.78,1.606,3.287,4.807c0.506,3.208,0.759,7.174,0.759,11.892c0,3.381-0.044,6.96-0.128,10.757
		c-0.085,3.792-0.125,7.549-0.125,11.26c0,6.413,0.42,11.979,1.265,16.7c0.842,4.724,2.696,7.085,5.567,7.085
		c2.024,0,4.257-0.633,6.707-1.896c2.442-1.267,4.719-2.699,6.83-4.304c2.108-1.603,3.923-3.034,5.44-4.302
		c1.517-1.267,2.443-1.896,2.781-1.896c2.189,0,3.29,0.927,3.29,2.781c0,1.185-1.226,2.785-3.669,4.813
		c-2.447,2.02-5.23,3.962-8.35,5.818c-3.125,1.854-6.244,3.504-9.363,4.935c-3.123,1.429-5.438,2.151-6.957,2.151
		c-2.53,0-4.516-0.761-5.947-2.279c-1.438-1.521-2.529-3.453-3.287-5.819c-0.761-2.36-1.267-4.973-1.52-7.847
		c-0.254-2.866-0.381-5.563-0.381-8.094c0-1.686,0.041-3.204,0.127-4.56c0.084-1.345,0.127-2.528,0.127-3.539
		c0-0.841-0.043-2.234-0.127-4.175c-0.086-1.939-0.127-4.177-0.127-6.705c0-2.866,0.041-5.946,0.127-9.238
		c0.084-3.287,0.254-6.279,0.507-8.981c0.253-2.695,0.631-4.934,1.14-6.703C267.686,1023.227,268.355,1022.344,269.204,1022.344z"/>
	<path fill="#FFFFFF" d="M313.479,1057.007c3.373,0.34,6.617,0.507,9.742,0.507c3.12,0,6.283,0,9.489,0h12.903
		c1.351,0,2.023,0.505,2.023,1.521c-0.846,1.856-2.742,3.077-5.693,3.67c-2.952,0.592-5.86,0.883-8.729,0.883
		c-1.181,0-2.276-0.038-3.29-0.125c-1.012-0.086-1.857-0.128-2.529-0.128c2.529,3.379,3.795,7.258,3.795,11.641
		c0,5.23-1.643,9.405-4.933,12.524c-3.29,3.125-7.465,4.684-12.526,4.684c-2.53,0-4.723-0.549-6.578-1.646
		c-1.856-1.096-3.332-2.486-4.428-4.173c-1.1-1.688-1.898-3.626-2.404-5.822c-0.506-2.188-0.76-4.384-0.76-6.577
		c0-1.52,0.127-3.417,0.379-5.693c0.254-2.278,0.761-4.513,1.521-6.705c0.758-2.192,1.772-4.086,3.037-5.694
		c1.266-1.6,2.907-2.403,4.935-2.403c0.672,0,1.43,0.376,2.274,1.139c0.844,0.76,1.432,1.479,1.771,2.149v0.25H313.479z
		 M307.152,1065.106l-0.252,4.05c0,0.842,0.039,2.065,0.125,3.666c0.084,1.604,0.38,3.164,0.888,4.682
		c0.503,1.521,1.138,2.828,1.896,3.923c0.76,1.101,1.729,1.644,2.912,1.644c2.866,0,5.354-1.093,7.463-3.284
		c2.108-2.193,3.162-4.725,3.162-7.594c0-2.026-0.593-3.455-1.771-4.303c-1.183-0.844-2.657-1.395-4.429-1.646
		c-1.77-0.251-3.586-0.376-5.44-0.376C309.85,1065.865,308.333,1065.612,307.152,1065.106z"/>
	<path fill="#FFFFFF" d="M340.3,1059.791c0.339-0.842,1.604-1.598,3.793-2.277c2.192-0.671,4.638-1.264,7.339-1.771
		c2.696-0.505,5.271-0.885,7.717-1.138c2.444-0.255,4.09-0.376,4.938-0.376c1.35,0,2.021,0.758,2.021,2.274l-1.519,2.53
		c-6.413,2.191-13.157,3.288-20.243,3.288c-0.847,0-1.727-0.128-2.654-0.38C340.766,1061.688,340.3,1060.973,340.3,1059.791z
		 M346.878,1022.344c1.685,0,2.783,1.606,3.29,4.807c0.503,3.208,0.758,7.174,0.758,11.892c0,3.381-0.044,6.96-0.128,10.757
		c-0.085,3.792-0.127,7.549-0.127,11.26c0,6.413,0.422,11.979,1.267,16.7c0.842,4.724,2.696,7.085,5.567,7.085
		c2.024,0,4.257-0.633,6.705-1.896c2.444-1.267,4.722-2.699,6.831-4.304c2.107-1.603,3.924-3.034,5.439-4.302
		c1.52-1.267,2.443-1.896,2.785-1.896c2.188,0,3.289,0.927,3.289,2.781c0,1.185-1.228,2.785-3.672,4.813
		c-2.445,2.02-5.229,3.962-8.347,5.818c-3.126,1.854-6.245,3.504-9.364,4.935c-3.122,1.429-5.439,2.151-6.957,2.151
		c-2.529,0-4.516-0.761-5.947-2.279c-1.436-1.521-2.529-3.453-3.289-5.819c-0.761-2.36-1.264-4.973-1.517-7.847
		c-0.255-2.866-0.382-5.563-0.382-8.094c0-1.686,0.04-3.204,0.127-4.56c0.084-1.345,0.127-2.528,0.127-3.539
		c0-0.841-0.043-2.234-0.127-4.175c-0.087-1.939-0.127-4.177-0.127-6.705c0-2.866,0.04-5.946,0.127-9.238
		c0.084-3.287,0.255-6.279,0.508-8.981c0.252-2.695,0.63-4.934,1.137-6.703C345.359,1023.227,346.031,1022.344,346.878,1022.344z"/>
	<path fill="#FFFFFF" d="M395.456,1052.201c0.844-1.854,2.274-2.785,4.301-2.785c2.024,0,3.373,0.72,4.05,2.154
		c0.672,1.432,1.012,3.077,1.012,4.933c0,1.857-0.129,3.63-0.379,5.313c-0.254,1.688-0.381,3.035-0.381,4.05
		c0,1.353,0.127,3.081,0.381,5.186c0.25,2.11,0.672,4.138,1.266,6.076c0.589,1.938,1.477,3.626,2.656,5.062
		c1.179,1.43,2.783,2.148,4.807,2.148c1.855,0,3.835-0.636,5.947-1.896c2.106-1.268,4.088-2.655,5.946-4.177
		c1.854-1.521,3.542-2.908,5.061-4.176c1.518-1.267,2.695-1.896,3.542-1.896c1.518,0,2.277,0.76,2.277,2.276
		c0,1.354-1.057,3-3.162,4.933c-2.112,1.942-4.556,3.844-7.34,5.696c-2.782,1.858-5.608,3.46-8.476,4.806
		c-2.87,1.354-5.147,2.026-6.832,2.026c-2.872,0-5.313-1.014-7.338-3.037c-2.024-2.025-3.713-4.215-5.063-6.582
		c-1.516,1.86-3.33,3.801-5.438,5.822c-2.11,2.021-4.515,3.036-7.211,3.036c-1.521,0-2.782-0.462-3.795-1.389
		s-1.815-2.112-2.402-3.548c-0.597-1.429-1.015-2.908-1.268-4.424c-0.253-1.519-0.38-2.868-0.38-4.051
		c0-1.854,0.336-4.257,1.013-7.212c0.671-2.952,1.687-5.821,3.037-8.604c1.349-2.783,2.991-5.144,4.934-7.085
		c1.938-1.938,4.177-2.91,6.707-2.91C393.938,1051.947,394.779,1052.033,395.456,1052.201z M393.432,1058.528
		c-2.869,1.684-4.895,4.303-6.074,7.844c-1.182,3.54-1.687,6.919-1.519,10.12l0.253,4.808c2.363-1.35,4.344-3.625,5.947-6.831
		c1.602-3.202,2.404-6.235,2.404-9.108v-6.325L393.432,1058.528z"/>
	<path fill="#FFFFFF" d="M439.65,1073.963c1.004,2.699,2.431,5.274,4.276,7.717c1.843,2.447,4.443,3.668,7.806,3.668
		c2.514,0,5.071-0.672,7.674-2.023c2.601-1.348,5.032-2.866,7.297-4.553c2.267-1.688,4.244-3.203,5.928-4.558
		c1.686-1.351,2.95-2.022,3.797-2.022c1.521,0,2.275,0.76,2.275,2.276c0,1.518-1.227,3.334-3.668,5.438
		c-2.448,2.113-5.267,4.177-8.453,6.203c-3.192,2.021-6.422,3.714-9.695,5.059c-3.272,1.347-5.743,2.024-7.421,2.024
		c-3.692,0-6.927-1.477-9.692-4.429c-2.77-2.953-5.162-6.787-7.175-11.516c-2.016-4.721-3.649-9.993-4.908-15.813
		c-1.256-5.819-2.262-11.512-3.021-17.082c-0.75-5.566-1.255-10.793-1.51-15.685c-0.25-4.893-0.377-8.686-0.377-11.391
		c0-4.38,0.254-10.243,0.756-17.583c0.505-7.337,1.681-14.549,3.521-21.636c1.852-7.085,4.529-13.196,8.059-18.347
		c3.521-5.144,8.308-7.715,14.348-7.715c4.361,0,7.926,1.604,10.694,4.806c2.769,3.208,4.993,7.003,6.671,11.386
		c1.676,4.394,2.81,8.985,3.398,13.796c0.586,4.806,0.882,8.813,0.882,12.014c0,7.26-0.632,14.552-1.89,21.888
		c-1.258,7.339-3.187,14.514-5.787,21.512c-2.603,6.998-5.876,13.62-9.817,19.859
		C449.671,1063.504,445.019,1069.072,439.65,1073.963z M430.881,1014.751c0,8.946,0.58,17.755,1.75,26.44
		c1.167,8.691,2.752,17.336,4.753,25.939c8.459-9.113,14.764-19.484,18.906-31.124s6.221-23.535,6.221-35.683
		c0-2.186-0.09-5.479-0.255-9.864c-0.169-4.386-0.72-8.729-1.644-13.031c-0.931-4.303-2.322-8.054-4.176-11.259
		c-1.859-3.206-4.39-4.811-7.592-4.811c-2.531,0-4.726,1.056-6.579,3.163c-1.856,2.11-3.461,4.853-4.808,8.228
		c-1.354,3.371-2.448,7.125-3.288,11.256c-0.848,4.137-1.52,8.185-2.025,12.146c-0.507,3.963-0.847,7.633-1.012,11.006
		C430.963,1010.538,430.881,1013.065,430.881,1014.751z"/>
</g>
<g>
	<g>
		<defs>
			<rect id="SVGID_3_" x="-288.784" y="1546.239" width="1026" height="775"/>
		</defs>
		<clipPath id="SVGID_4_">
			<use xlink:href="#SVGID_3_"  overflow="visible"/>
		</clipPath>
		<g clip-path="url(#SVGID_4_)">
			
				<image overflow="visible" enable-background="new    " width="1914" height="1078" xlink:href="702EFFFE.jpeg"  transform="matrix(0.7198 0 0 0.7189 -504.7842 1546.2874)">
			</image>
		</g>
	</g>
</g>
<rect x="-288.784" y="1546.239" opacity="0.5" enable-background="new    " width="1026" height="775"/>
<g>
	<path fill="#FFFFFF" d="M662.539,2171.037c0.337,2.705,0.69,5.428,1.077,8.182c0.598,4.271,1.197,8.512,1.799,12.721
		c0.596,4.215,1.08,8.362,1.439,12.451c-6.597,1.322-12.771,2.887-18.524,4.69c-5.757,1.805-10.763,4.302-15.019,7.485
		c-4.261,3.189-7.61,7.34-10.068,12.45c-2.461,5.115-3.689,11.58-3.689,19.396c0,4.209,0.57,8.933,1.709,14.165
		c0.277,1.274,0.596,2.531,0.95,3.773c3.847,4.385,8.349,8.18,13.354,11.23c-1.344-1.962-2.532-4.104-3.563-6.437
		c-1.807-4.089-3.1-8.36-3.881-12.81c-0.785-4.45-1.172-8.241-1.172-11.368c0-6.252,1.084-11.547,3.246-15.877
		c2.167-4.33,5.081-7.968,8.753-10.916c3.667-2.947,7.967-5.262,12.901-6.947c4.932-1.683,10.102-3.065,15.516-4.148
		c-0.121,0.604-0.182,1.172-0.182,1.713v1.715c0,3.61,0.209,7.279,0.631,11.007c0.423,3.73,0.635,7.338,0.635,10.826
		c0,2.165-0.063,4.96-0.18,8.39c-0.124,3.427-0.362,7.037-0.724,10.826c-0.362,3.789-0.965,7.638-1.808,11.548
		c-0.84,3.907-1.981,7.398-3.427,10.465c-1.443,3.066-3.246,5.594-5.414,7.578c-0.771,0.707-1.604,1.28-2.495,1.735
		c3.308,0.645,6.718,1.002,10.202,1.052c0.633-0.795,1.233-1.629,1.795-2.516c1.978-3.13,3.537-6.738,4.679-10.826
		c1.139-4.092,2.037-8.183,2.696-12.271c0.659-4.091,1.079-8.091,1.26-11.998c0.18-3.907,0.268-7.306,0.268-10.194
		c0-4.689-0.062-9.743-0.18-15.155c-0.119-5.413-0.78-10.405-1.979-14.977c0.479-0.119,1.2-0.24,2.163-0.361
		c0.853-0.104,1.734-0.267,2.64-0.47c-0.005,0.076-0.008,0.146-0.013,0.227c-0.063,0.965-0.091,2.047-0.091,3.247
		c0,1.808,0.091,3.73,0.271,5.774c0.182,2.047,0.541,3.91,1.082,5.593c0.541,1.688,1.321,3.068,2.348,4.149
		c1.019,1.082,2.438,1.625,4.238,1.625c1.084,0,2.735-0.513,4.965-1.535c2.221-1.021,4.447-2.191,6.674-3.518
		c2.224-1.322,4.211-2.707,5.955-4.148c1.74-1.445,2.616-2.585,2.616-3.43c0-1.321-0.782-1.984-2.347-1.984
		c-0.242,0-0.902,0.452-1.983,1.354c-1.083,0.901-2.379,1.926-3.881,3.066c-1.505,1.145-3.128,2.164-4.872,3.068
		c-1.745,0.902-3.337,1.352-4.779,1.352c-2.049,0-3.371-1.683-3.971-5.051c-0.571-3.198-0.866-6.945-0.896-11.23
		c3.423-0.33,6.729-1.029,9.916-2.123l1.08-1.804c0-1.082-0.479-1.623-1.438-1.623c-0.604,0-1.777,0.091-3.521,0.271
		c-1.744,0.18-3.58,0.45-5.501,0.813c-0.179,0.034-0.348,0.07-0.521,0.104c0.014-1.44,0.035-2.889,0.067-4.348
		c0.063-2.702,0.093-5.26,0.093-7.666c0-3.366-0.181-6.192-0.542-8.48c-0.36-2.284-1.146-3.429-2.346-3.429
		c-0.604,0-1.082,0.632-1.442,1.895c-0.36,1.265-0.635,2.859-0.813,4.781c-0.182,1.926-0.303,4.06-0.361,6.405
		c-0.063,2.346-0.091,4.542-0.091,6.586c0,1.806,0.028,3.399,0.091,4.781c0.013,0.297,0.023,0.571,0.033,0.832
		c-0.147,0.054-0.287,0.107-0.421,0.162l-4.939,0.604c-0.123-1.083-0.394-3.096-0.812-6.045c-0.419-2.947-0.897-6.313-1.436-10.104
		c-0.543-3.789-1.141-7.758-1.803-11.907c-0.242-1.525-0.479-2.985-0.713-4.413c-0.8-0.032-1.603-0.055-2.408-0.055
		C664.468,2170.964,663.501,2170.989,662.539,2171.037z"/>
</g>
<rect x="-926.784" y="-285.761" width="512" height="768"/>
<g>
	<g>
		<path fill="#FFFFFF" d="M-673.194-3.384c0-2.516,1.16-3.777,3.479-3.777c0.575,0.195,1.347,2.137,2.313,5.811
			c0.964,3.685,1.929,8.281,2.897,13.805c0.961,5.519,1.979,11.619,3.038,18.305c1.066,6.683,2.029,13.072,2.902,19.174
			c0.865,6.104,1.638,11.526,2.313,16.272c0.674,4.75,1.106,7.989,1.306,9.732l11.896-1.453c0.967,0,1.788,0.293,2.469,0.87
			c0.68,0.583,1.021,1.357,1.021,2.327s-0.63,1.79-1.89,2.469c-1.263,0.681-2.714,1.214-4.358,1.6
			c-1.647,0.391-3.245,0.681-4.788,0.869c-1.551,0.194-2.711,0.391-3.484,0.582c1.93,7.36,2.994,15.399,3.186,24.116
			c0.191,8.716,0.291,16.853,0.291,24.404c0,4.651-0.143,10.124-0.432,16.416c-0.291,6.292-0.965,12.735-2.029,19.321
			c-1.061,6.583-2.508,13.17-4.342,19.76c-1.838,6.583-4.35,12.394-7.533,17.433c-3.187,5.032-7.094,9.15-11.726,12.349
			c-4.636,3.193-10.136,4.793-16.515,4.793c-8.105,0-15.107-2.567-20.996-7.7c-5.887-5.134-10.808-11.476-14.768-19.031
			c-3.958-7.556-6.854-15.542-8.687-23.968c-1.833-8.427-2.752-16.032-2.752-22.811c0-12.588,1.978-22.997,5.94-31.233
			c3.959-8.231,9.354-14.913,16.215-20.049c6.852-5.129,14.912-9.149,24.184-12.057c9.264-2.903,19.208-5.423,29.83-7.553
			c-0.58-6.584-1.358-13.265-2.319-20.051c-0.968-6.779-1.934-13.605-2.896-20.483c-0.965-6.872-1.835-13.653-2.604-20.337
			C-672.808,9.835-673.194,3.203-673.194-3.384z M-663.388,84.944c-8.717,1.743-17.044,3.974-24.985,6.683
			c-7.945,2.714-14.87,6.44-20.774,11.188c-5.912,4.748-10.604,10.605-14.095,17.577c-3.481,6.973-5.228,15.499-5.228,25.568
			c0,5.034,0.623,11.139,1.887,18.306c1.26,7.163,3.341,14.042,6.25,20.627c2.904,6.583,6.582,12.252,11.037,17
			c4.455,4.743,9.883,7.118,16.272,7.118c5.036,0,9.299-1.6,12.782-4.795c3.49-3.196,6.393-7.265,8.717-12.204
			c2.327-4.937,4.166-10.559,5.519-16.851c1.356-6.298,2.327-12.494,2.911-18.597c0.58-6.102,0.964-11.914,1.163-17.433
			c0.19-5.522,0.29-10.023,0.29-13.51c0-5.617-0.341-11.428-1.022-17.436c-0.68-6.002-1.015-11.91-1.015-17.724
			c0-0.965,0-1.887,0-2.761C-663.679,86.832-663.583,85.917-663.388,84.944z"/>
	</g>
	<g>
		<path fill="#FFFFFF" d="M-649.707,76.997c0.39-0.965,1.84-1.838,4.358-2.614c2.516-0.772,5.324-1.454,8.429-2.032
			c3.093-0.582,6.049-1.02,8.858-1.31c2.806-0.29,4.696-0.436,5.668-0.436c1.547,0,2.318,0.871,2.318,2.613l-1.74,2.904
			c-7.361,2.521-15.104,3.777-23.24,3.777c-0.975,0-1.988-0.146-3.052-0.435S-649.707,78.356-649.707,76.997z M-642.151,33.995
			c1.932,0,3.194,1.844,3.775,5.521c0.584,3.685,0.873,8.234,0.873,13.656c0,3.877-0.049,7.992-0.148,12.346
			c-0.1,4.359-0.141,8.672-0.141,12.935c0,7.36,0.48,13.753,1.449,19.176c0.967,5.423,3.096,8.132,6.394,8.132
			c2.323,0,4.887-0.722,7.696-2.176c2.809-1.456,5.422-3.099,7.846-4.941c2.419-1.838,4.506-3.485,6.25-4.938
			c1.741-1.453,2.804-2.182,3.193-2.182c2.519,0,3.779,1.067,3.779,3.195c0,1.359-1.41,3.195-4.213,5.522
			c-2.81,2.322-6.01,4.553-9.59,6.683c-3.586,2.134-7.17,4.021-10.746,5.662c-3.59,1.647-6.25,2.474-7.996,2.474
			c-2.9,0-5.186-0.874-6.824-2.618c-1.651-1.74-2.909-3.965-3.78-6.683c-0.871-2.709-1.45-5.709-1.742-9.005
			c-0.291-3.291-0.436-6.391-0.436-9.3c0-1.933,0.046-3.675,0.145-5.229c0.096-1.551,0.146-2.904,0.146-4.067
			c0-0.968-0.05-2.564-0.146-4.796c-0.099-2.224-0.145-4.791-0.145-7.698c0-3.291,0.046-6.828,0.145-10.605
			c0.096-3.776,0.291-7.213,0.583-10.313c0.287-3.097,0.729-5.663,1.31-7.698C-643.895,35.013-643.124,33.995-642.151,33.995z"/>
	</g>
</g>
<g>
	<path fill="#FFFFFF" d="M-2325.487-753.628c0-2.188,1.011-3.288,3.03-3.288c0.502,0.168,1.173,1.855,2.016,5.061
		c0.838,3.206,1.682,7.211,2.522,12.019c0.84,4.812,1.724,10.122,2.65,15.943c0.924,5.816,1.764,11.385,2.523,16.698
		c0.752,5.314,1.426,10.038,2.014,14.17c0.585,4.141,0.967,6.957,1.136,8.476l10.362-1.266c0.843,0,1.559,0.256,2.151,0.762
		c0.589,0.504,0.886,1.184,0.886,2.024c0,0.844-0.551,1.563-1.646,2.15c-1.098,0.591-2.362,1.054-3.795,1.391
		c-1.436,0.342-2.828,0.594-4.173,0.762c-1.347,0.169-2.358,0.338-3.031,0.503c1.681,6.414,2.605,13.41,2.776,21.005
		c0.164,7.591,0.253,14.677,0.253,21.257c0,4.046-0.127,8.814-0.38,14.293c-0.255,5.481-0.84,11.09-1.763,16.827
		c-0.928,5.733-2.187,11.469-3.784,17.205c-1.598,5.732-3.784,10.793-6.56,15.187c-2.775,4.382-6.179,7.968-10.212,10.751
		c-4.036,2.784-8.829,4.173-14.378,4.173c-7.063,0-13.16-2.234-18.289-6.703c-5.125-4.472-9.411-9.995-12.861-16.573
		c-3.446-6.58-5.969-13.538-7.564-20.873c-1.6-7.341-2.396-13.961-2.396-19.864c0-10.962,1.724-20.032,5.171-27.202
		c3.448-7.167,8.154-12.986,14.123-17.458c5.971-4.468,12.988-7.97,21.062-10.502c8.07-2.532,16.729-4.72,25.979-6.579
		c-0.505-5.732-1.184-11.555-2.02-17.458c-0.844-5.903-1.688-11.849-2.522-17.842c-0.844-5.987-1.598-11.894-2.27-17.71
		C-2325.148-742.113-2325.487-747.89-2325.487-753.628z M-2316.944-676.704c-7.592,1.518-14.848,3.457-21.764,5.818
		c-6.918,2.365-12.946,5.607-18.092,9.741c-5.147,4.138-9.233,9.235-12.271,15.309c-3.037,6.074-4.554,13.499-4.554,22.271
		c0,4.382,0.546,9.698,1.644,15.938c1.095,6.237,2.91,12.231,5.438,17.965c2.533,5.729,5.734,10.669,9.617,14.805
		c3.876,4.129,8.604,6.199,14.169,6.199c4.384,0,8.098-1.391,11.133-4.177c3.039-2.781,5.569-6.325,7.592-10.626
		c2.025-4.302,3.626-9.198,4.809-14.68c1.178-5.479,2.024-10.878,2.53-16.189c0.505-5.316,0.843-10.375,1.015-15.186
		c0.163-4.806,0.25-8.728,0.25-11.765c0-4.89-0.296-9.949-0.885-15.183c-0.594-5.227-0.885-10.374-0.885-15.438
		c0-0.84,0-1.643,0-2.401C-2317.198-675.063-2317.115-675.858-2316.944-676.704z"/>
	<path fill="#FFFFFF" d="M-2277.221-663.799c0.843-1.854,2.278-2.785,4.304-2.785c2.023,0,3.371,0.72,4.048,2.154
		c0.671,1.432,1.011,3.076,1.011,4.933s-0.127,3.63-0.379,5.313c-0.252,1.688-0.379,3.036-0.379,4.051
		c0,1.353,0.127,3.081,0.379,5.186c0.252,2.11,0.673,4.137,1.266,6.076c0.589,1.938,1.475,3.626,2.657,5.061
		c1.178,1.431,2.781,2.149,4.806,2.149c1.857,0,3.835-0.636,5.947-1.897c2.107-1.267,4.09-2.654,5.947-4.177
		c1.854-1.52,3.54-2.908,5.06-4.175c1.519-1.268,2.697-1.897,3.543-1.897c1.518,0,2.277,0.761,2.277,2.277
		c0,1.354-1.056,2.999-3.163,4.932c-2.111,1.942-4.555,3.845-7.339,5.696c-2.783,1.859-5.609,3.46-8.474,4.806
		c-2.872,1.354-5.149,2.026-6.834,2.026c-2.872,0-5.314-1.013-7.338-3.037c-2.022-2.024-3.713-4.215-5.061-6.582
		c-1.519,1.861-3.333,3.802-5.441,5.822c-2.11,2.022-4.513,3.037-7.21,3.037c-1.52,0-2.784-0.462-3.797-1.389
		c-1.014-0.928-1.814-2.112-2.403-3.549c-0.592-1.429-1.012-2.907-1.265-4.424c-0.253-1.518-0.38-2.868-0.38-4.05
		c0-1.854,0.334-4.257,1.011-7.212c0.672-2.952,1.687-5.822,3.037-8.604c1.349-2.783,2.993-5.144,4.935-7.086
		c1.938-1.938,4.177-2.909,6.707-2.909C-2278.739-664.053-2277.896-663.967-2277.221-663.799z M-2279.244-657.473
		c-2.872,1.685-4.896,4.304-6.074,7.845c-1.182,3.54-1.687,6.919-1.518,10.12l0.253,4.808c2.362-1.35,4.342-3.625,5.947-6.831
		c1.599-3.202,2.404-6.236,2.404-9.109v-6.324L-2279.244-657.473z"/>
	<path fill="#FFFFFF" d="M-2222.06-669.114c0.506,0,1.266,0.253,2.279,0.762c1.011,0.507,1.937,1.138,2.783,1.896
		c0.841,0.76,1.601,1.52,2.277,2.281c0.672,0.757,1.01,1.389,1.01,1.896c0,1.517-0.972,3.5-2.908,5.945
		c-1.939,2.443-4.093,4.853-6.452,7.212c-2.366,2.362-4.599,4.555-6.706,6.579c-2.112,2.024-3.25,3.372-3.418,4.046
		c0.168,1.015,0.719,1.859,1.647,2.534c0.923,0.672,1.981,1.223,3.162,1.643c1.178,0.424,2.403,0.719,3.668,0.884
		c1.267,0.173,2.233,0.253,2.912,0.253c4.213,0,7.927-0.544,11.132-1.644c3.203-1.094,5.945-2.361,8.226-3.797
		c2.275-1.432,4.086-2.697,5.438-3.795c1.35-1.095,2.279-1.645,2.784-1.645c1.179,0,1.771,0.759,1.771,2.276
		c-0.846,2.362-2.403,4.557-4.683,6.579c-2.275,2.022-4.894,3.755-7.843,5.186c-2.953,1.437-5.945,2.577-8.982,3.417
		c-3.035,0.848-5.733,1.268-8.098,1.268c-2.024,0-4.26-0.211-6.707-0.634c-2.446-0.416-4.766-1.139-6.957-2.15
		c-2.192-1.013-4.05-2.404-5.565-4.177c-1.52-1.768-2.278-3.917-2.278-6.452c0-1.521,0.886-3.199,2.656-5.06
		c1.773-1.853,3.797-3.837,6.074-5.948c2.277-2.106,4.555-4.174,6.83-6.197c2.279-2.025,3.836-3.961,4.684-5.816
		c-2.024,0.338-4.048,0.629-6.073,0.883c-2.024,0.254-4.049,0.379-6.072,0.379c-0.847,0-2.068-0.083-3.668-0.253
		c-1.605-0.161-2.404-0.924-2.404-2.274l2.023-2.783c3.202,0,6.281-0.547,9.236-1.646
		C-2227.334-668.563-2224.589-669.114-2222.06-669.114z"/>
	<path fill="#FFFFFF" d="M-2177.525-669.114c0.507,0,1.266,0.253,2.279,0.762c1.011,0.507,1.938,1.138,2.781,1.896
		c0.843,0.76,1.603,1.52,2.279,2.281c0.671,0.757,1.011,1.389,1.011,1.896c0,1.517-0.971,3.5-2.908,5.945
		c-1.943,2.443-4.094,4.853-6.453,7.212c-2.364,2.362-4.598,4.555-6.707,6.579s-3.249,3.372-3.416,4.046
		c0.167,1.015,0.718,1.859,1.645,2.534c0.925,0.672,1.982,1.223,3.164,1.643c1.178,0.424,2.403,0.719,3.668,0.884
		c1.266,0.173,2.236,0.253,2.912,0.253c4.213,0,7.926-0.544,11.133-1.644c3.204-1.094,5.945-2.361,8.226-3.797
		c2.274-1.432,4.086-2.697,5.438-3.795c1.35-1.095,2.279-1.645,2.785-1.645c1.178,0,1.77,0.759,1.77,2.276
		c-0.843,2.362-2.402,4.557-4.682,6.579c-2.274,2.022-4.893,3.755-7.843,5.186c-2.954,1.437-5.945,2.577-8.982,3.417
		c-3.037,0.848-5.736,1.268-8.098,1.268c-2.023,0-4.261-0.211-6.706-0.634c-2.445-0.416-4.766-1.139-6.956-2.15
		c-2.196-1.013-4.05-2.404-5.566-4.177c-1.521-1.768-2.277-3.917-2.277-6.452c0-1.521,0.885-3.199,2.655-5.06
		c1.771-1.853,3.799-3.837,6.074-5.948c2.277-2.106,4.555-4.174,6.832-6.197c2.277-2.025,3.833-3.961,4.681-5.816
		c-2.025,0.338-4.046,0.629-6.07,0.883c-2.025,0.254-4.05,0.379-6.075,0.379c-0.847,0-2.068-0.083-3.669-0.253
		c-1.604-0.161-2.403-0.924-2.403-2.274l2.022-2.783c3.203,0,6.284-0.547,9.237-1.646
		C-2182.8-668.563-2180.056-669.114-2177.525-669.114z"/>
	<path fill="#FFFFFF" d="M-2123.376-656.209c0.338-0.842,1.604-1.599,3.793-2.277c2.192-0.671,4.639-1.264,7.34-1.771
		c2.695-0.505,5.271-0.886,7.717-1.139c2.443-0.254,4.088-0.376,4.936-0.376c1.349,0,2.021,0.759,2.021,2.275l-1.517,2.53
		c-6.414,2.19-13.157,3.288-20.244,3.288c-0.845,0-1.727-0.128-2.655-0.38C-2122.911-654.312-2123.376-655.027-2123.376-656.209z
		 M-2116.796-693.656c1.683,0,2.78,1.606,3.287,4.806c0.506,3.208,0.759,7.175,0.759,11.893c0,3.381-0.044,6.96-0.128,10.757
		c-0.085,3.792-0.125,7.549-0.125,11.26c0,6.413,0.42,11.979,1.264,16.7c0.843,4.725,2.697,7.085,5.568,7.085
		c2.025,0,4.257-0.633,6.707-1.896c2.443-1.267,4.719-2.699,6.83-4.304c2.109-1.603,3.923-3.034,5.44-4.302
		c1.517-1.267,2.444-1.896,2.782-1.896c2.19,0,3.29,0.927,3.29,2.781c0,1.185-1.225,2.785-3.669,4.813
		c-2.447,2.02-5.231,3.962-8.349,5.819c-3.126,1.854-6.245,3.503-9.364,4.934c-3.123,1.429-5.438,2.151-6.957,2.151
		c-2.53,0-4.516-0.761-5.947-2.279c-1.437-1.521-2.53-3.453-3.288-5.819c-0.76-2.36-1.266-4.973-1.519-7.847
		c-0.254-2.866-0.381-5.563-0.381-8.094c0-1.686,0.041-3.204,0.127-4.56c0.084-1.345,0.127-2.527,0.127-3.539
		c0-0.841-0.043-2.234-0.127-4.175c-0.086-1.939-0.127-4.177-0.127-6.705c0-2.866,0.041-5.945,0.127-9.237
		c0.084-3.288,0.254-6.28,0.507-8.982c0.253-2.695,0.631-4.933,1.14-6.703C-2118.315-692.773-2117.644-693.656-2116.796-693.656z"/>
	<path fill="#FFFFFF" d="M-2072.522-658.993c3.374,0.34,6.618,0.507,9.742,0.507c3.121,0,6.284,0,9.49,0h12.904
		c1.35,0,2.022,0.505,2.022,1.521c-0.846,1.856-2.742,3.077-5.694,3.67c-2.952,0.592-5.86,0.883-8.729,0.883
		c-1.181,0-2.277-0.038-3.29-0.125c-1.012-0.086-1.856-0.128-2.529-0.128c2.529,3.379,3.795,7.258,3.795,11.641
		c0,5.23-1.643,9.405-4.933,12.524c-3.29,3.125-7.465,4.684-12.527,4.684c-2.53,0-4.722-0.549-6.577-1.646
		c-1.857-1.097-3.332-2.486-4.428-4.173c-1.1-1.688-1.898-3.626-2.405-5.822c-0.505-2.189-0.759-4.384-0.759-6.577
		c0-1.52,0.127-3.417,0.379-5.694c0.253-2.277,0.76-4.512,1.521-6.705c0.758-2.191,1.771-4.086,3.037-5.693
		c1.266-1.601,2.908-2.403,4.934-2.403c0.672,0,1.43,0.376,2.275,1.138c0.844,0.761,1.432,1.479,1.771,2.15v0.25H-2072.522z
		 M-2078.847-650.895l-0.253,4.051c0,0.842,0.04,2.065,0.125,3.666c0.084,1.604,0.38,3.163,0.888,4.682
		c0.503,1.52,1.138,2.828,1.896,3.923c0.76,1.1,1.729,1.643,2.911,1.643c2.867,0,5.354-1.092,7.463-3.283
		c2.109-2.193,3.163-4.725,3.163-7.595c0-2.025-0.593-3.455-1.771-4.302c-1.182-0.844-2.657-1.395-4.428-1.646
		c-1.77-0.251-3.586-0.376-5.441-0.376C-2076.151-650.135-2077.667-650.388-2078.847-650.895z"/>
	<path fill="#FFFFFF" d="M-2045.7-656.209c0.338-0.842,1.604-1.599,3.793-2.277c2.192-0.671,4.637-1.264,7.338-1.771
		c2.697-0.505,5.271-0.886,7.718-1.139c2.444-0.254,4.089-0.376,4.937-0.376c1.349,0,2.021,0.759,2.021,2.275l-1.518,2.53
		c-6.413,2.19-13.158,3.288-20.243,3.288c-0.847,0-1.727-0.128-2.655-0.38C-2045.234-654.312-2045.7-655.027-2045.7-656.209z
		 M-2039.122-693.656c1.685,0,2.783,1.606,3.29,4.806c0.503,3.208,0.758,7.175,0.758,11.893c0,3.381-0.044,6.96-0.128,10.757
		c-0.085,3.792-0.127,7.549-0.127,11.26c0,6.413,0.422,11.979,1.266,16.7c0.843,4.725,2.697,7.085,5.568,7.085
		c2.025,0,4.257-0.633,6.705-1.896c2.445-1.267,4.721-2.699,6.831-4.304c2.108-1.603,3.924-3.034,5.439-4.302
		c1.52-1.267,2.444-1.896,2.785-1.896c2.188,0,3.29,0.927,3.29,2.781c0,1.185-1.228,2.785-3.672,4.813
		c-2.445,2.02-5.229,3.962-8.347,5.819c-3.126,1.854-6.245,3.503-9.364,4.934c-3.122,1.429-5.438,2.151-6.957,2.151
		c-2.53,0-4.516-0.761-5.947-2.279c-1.436-1.521-2.53-3.453-3.29-5.819c-0.76-2.36-1.263-4.973-1.516-7.847
		c-0.255-2.866-0.382-5.563-0.382-8.094c0-1.686,0.04-3.204,0.127-4.56c0.084-1.345,0.127-2.527,0.127-3.539
		c0-0.841-0.043-2.234-0.127-4.175c-0.087-1.939-0.127-4.177-0.127-6.705c0-2.866,0.04-5.945,0.127-9.237
		c0.084-3.288,0.255-6.28,0.508-8.982c0.252-2.695,0.63-4.933,1.137-6.703C-2040.64-692.773-2039.969-693.656-2039.122-693.656z"/>
	<path fill="#FFFFFF" d="M-1990.544-663.799c0.844-1.854,2.275-2.785,4.301-2.785c2.024,0,3.373,0.72,4.049,2.154
		c0.673,1.432,1.012,3.076,1.012,4.933s-0.128,3.63-0.379,5.313c-0.254,1.688-0.38,3.036-0.38,4.051c0,1.353,0.126,3.081,0.38,5.186
		c0.251,2.11,0.673,4.137,1.266,6.076c0.589,1.938,1.476,3.626,2.657,5.061c1.178,1.431,2.782,2.149,4.806,2.149
		c1.855,0,3.835-0.636,5.947-1.897c2.107-1.267,4.088-2.654,5.947-4.177c1.854-1.52,3.542-2.908,5.06-4.175s2.695-1.897,3.542-1.897
		c1.518,0,2.277,0.761,2.277,2.277c0,1.354-1.056,2.999-3.162,4.932c-2.112,1.942-4.555,3.845-7.34,5.696
		c-2.782,1.859-5.608,3.46-8.475,4.806c-2.87,1.354-5.146,2.026-6.832,2.026c-2.872,0-5.313-1.013-7.338-3.037
		c-2.025-2.024-3.713-4.215-5.063-6.582c-1.516,1.861-3.331,3.802-5.439,5.822c-2.11,2.022-4.515,3.037-7.211,3.037
		c-1.52,0-2.782-0.462-3.795-1.389c-1.012-0.928-1.815-2.112-2.402-3.549c-0.597-1.429-1.015-2.907-1.268-4.424
		c-0.252-1.518-0.379-2.868-0.379-4.05c0-1.854,0.336-4.257,1.012-7.212c0.671-2.952,1.686-5.822,3.037-8.604
		c1.349-2.783,2.992-5.144,4.934-7.086c1.938-1.938,4.177-2.909,6.707-2.909C-1992.063-664.053-1991.22-663.967-1990.544-663.799z
		 M-1992.568-657.473c-2.87,1.685-4.895,4.304-6.074,7.845c-1.182,3.54-1.687,6.919-1.519,10.12l0.253,4.808
		c2.363-1.35,4.343-3.625,5.947-6.831c1.602-3.202,2.405-6.236,2.405-9.109v-6.324L-1992.568-657.473z"/>
	<path fill="#FFFFFF" d="M-1946.35-642.037c1.004,2.699,2.431,5.274,4.277,7.717c1.843,2.447,4.443,3.668,7.805,3.668
		c2.514,0,5.072-0.672,7.674-2.023c2.601-1.348,5.032-2.866,7.297-4.554c2.267-1.688,4.244-3.202,5.928-4.557
		c1.685-1.351,2.95-2.023,3.797-2.023c1.521,0,2.275,0.761,2.275,2.277s-1.226,3.334-3.668,5.438
		c-2.448,2.112-5.266,4.177-8.453,6.202c-3.192,2.021-6.422,3.715-9.695,5.06c-3.273,1.347-5.743,2.023-7.421,2.023
		c-3.693,0-6.927-1.476-9.693-4.428c-2.769-2.953-5.162-6.788-7.174-11.516c-2.016-4.721-3.65-9.993-4.909-15.813
		c-1.255-5.818-2.261-11.511-3.021-17.081c-0.75-5.566-1.255-10.793-1.51-15.685c-0.25-4.893-0.377-8.686-0.377-11.391
		c0-4.381,0.254-10.243,0.756-17.583c0.505-7.337,1.681-14.549,3.522-21.636c1.851-7.085,4.529-13.196,8.058-18.347
		c3.521-5.144,8.308-7.715,14.348-7.715c4.361,0,7.926,1.604,10.694,4.806c2.769,3.208,4.993,7.003,6.671,11.385
		c1.676,4.395,2.81,8.986,3.398,13.797c0.586,4.806,0.882,8.813,0.882,12.014c0,7.26-0.631,14.552-1.889,21.888
		c-1.258,7.339-3.187,14.514-5.787,21.511c-2.603,6.999-5.876,13.621-9.818,19.86
		C-1936.329-652.496-1940.981-646.928-1946.35-642.037z M-1955.119-701.249c0,8.946,0.58,17.755,1.75,26.439
		c1.167,8.692,2.752,17.336,4.753,25.94c8.459-9.113,14.763-19.484,18.906-31.124s6.221-23.535,6.221-35.683
		c0-2.186-0.09-5.479-0.255-9.864c-0.169-4.386-0.72-8.729-1.644-13.031c-0.93-4.303-2.322-8.054-4.175-11.259
		c-1.86-3.206-4.39-4.812-7.592-4.812c-2.532,0-4.726,1.057-6.579,3.164c-1.857,2.11-3.461,4.853-4.808,8.228
		c-1.353,3.371-2.448,7.125-3.288,11.256c-0.848,4.137-1.52,8.185-2.025,12.146c-0.507,3.963-0.847,7.633-1.012,11.006
		C-1955.037-705.462-1955.119-702.936-1955.119-701.249z"/>
</g>
<g>
	<g>
		<path d="M-34.511-1028.225c0-2.515,1.16-3.776,3.479-3.776c0.575,0.194,1.347,2.137,2.313,5.811
			c0.964,3.685,1.929,8.281,2.897,13.805c0.961,5.519,1.979,11.619,3.038,18.305c1.066,6.683,2.029,13.072,2.902,19.174
			c0.865,6.104,1.638,11.526,2.313,16.272c0.674,4.75,1.106,7.989,1.306,9.732l11.896-1.453c0.967,0,1.788,0.293,2.469,0.87
			c0.68,0.583,1.021,1.357,1.021,2.327s-0.63,1.79-1.89,2.469c-1.263,0.681-2.714,1.213-4.358,1.6
			c-1.647,0.391-3.245,0.681-4.788,0.869c-1.551,0.194-2.711,0.391-3.484,0.582c1.93,7.36,2.994,15.399,3.186,24.116
			c0.191,8.716,0.291,16.853,0.291,24.404c0,4.651-0.143,10.124-0.432,16.416c-0.291,6.292-0.965,12.735-2.029,19.321
			c-1.061,6.583-2.508,13.17-4.342,19.76c-1.838,6.583-4.35,12.394-7.533,17.433c-3.187,5.032-7.094,9.15-11.726,12.349
			c-4.636,3.193-10.136,4.793-16.515,4.793c-8.105,0-15.107-2.567-20.996-7.7c-5.887-5.134-10.808-11.476-14.768-19.031
			c-3.958-7.556-6.854-15.542-8.687-23.968c-1.833-8.427-2.752-16.032-2.752-22.811c0-12.588,1.978-22.997,5.94-31.233
			c3.959-8.231,9.354-14.913,16.215-20.049c6.852-5.129,14.912-9.149,24.184-12.057c9.264-2.903,19.208-5.423,29.83-7.553
			c-0.58-6.584-1.358-13.265-2.319-20.051c-0.968-6.779-1.934-13.605-2.896-20.483c-0.965-6.872-1.835-13.653-2.604-20.337
			C-34.124-1015.006-34.511-1021.637-34.511-1028.225z M-24.704-939.897c-8.717,1.743-17.044,3.974-24.985,6.683
			c-7.945,2.714-14.87,6.44-20.774,11.188c-5.912,4.748-10.604,10.605-14.095,17.577c-3.481,6.973-5.228,15.499-5.228,25.568
			c0,5.034,0.623,11.139,1.887,18.306c1.26,7.163,3.341,14.042,6.25,20.627c2.904,6.583,6.582,12.252,11.037,17
			c4.455,4.743,9.883,7.118,16.272,7.118c5.036,0,9.299-1.6,12.782-4.795c3.49-3.196,6.393-7.265,8.717-12.204
			c2.327-4.937,4.166-10.559,5.519-16.851c1.356-6.298,2.327-12.494,2.911-18.597c0.58-6.102,0.964-11.914,1.163-17.433
			c0.19-5.522,0.29-10.023,0.29-13.51c0-5.617-0.341-11.428-1.022-17.436c-0.68-6.002-1.015-11.91-1.015-17.724
			c0-0.965,0-1.887,0-2.761C-24.995-938.009-24.899-938.924-24.704-939.897z"/>
	</g>
	<g>
		<path d="M-11.023-947.844c0.39-0.966,1.84-1.839,4.358-2.614c2.516-0.772,5.324-1.454,8.429-2.032
			c3.093-0.582,6.049-1.02,8.858-1.31c2.806-0.29,4.696-0.436,5.668-0.436c1.547,0,2.318,0.871,2.318,2.613l-1.74,2.904
			c-7.361,2.521-15.104,3.777-23.24,3.777c-0.975,0-1.988-0.146-3.052-0.435C-10.488-945.665-11.023-946.485-11.023-947.844z
			 M-3.468-990.845c1.932,0,3.194,1.844,3.775,5.521c0.584,3.684,0.873,8.234,0.873,13.656c0,3.877-0.049,7.992-0.148,12.346
			c-0.1,4.359-0.141,8.672-0.141,12.935c0,7.36,0.48,13.753,1.449,19.176c0.967,5.423,3.096,8.132,6.394,8.132
			c2.323,0,4.887-0.722,7.696-2.176c2.809-1.456,5.422-3.099,7.846-4.941c2.419-1.838,4.506-3.486,6.25-4.938
			c1.741-1.453,2.804-2.182,3.193-2.182c2.519,0,3.779,1.067,3.779,3.195c0,1.359-1.41,3.195-4.213,5.521
			c-2.81,2.323-6.01,4.554-9.59,6.684c-3.586,2.134-7.17,4.021-10.746,5.662c-3.59,1.647-6.25,2.474-7.996,2.474
			c-2.9,0-5.186-0.874-6.824-2.618c-1.651-1.741-2.909-3.965-3.78-6.683c-0.871-2.709-1.45-5.709-1.742-9.005
			c-0.291-3.291-0.436-6.391-0.436-9.3c0-1.933,0.046-3.675,0.145-5.229c0.096-1.551,0.146-2.904,0.146-4.068
			c0-0.967-0.05-2.563-0.146-4.795c-0.099-2.224-0.145-4.791-0.145-7.698c0-3.291,0.046-6.828,0.145-10.605
			c0.096-3.776,0.291-7.213,0.583-10.313c0.287-3.097,0.729-5.663,1.31-7.698C-5.211-989.829-4.44-990.845-3.468-990.845z"/>
	</g>
</g>
<g>
	<g>
		<path fill="#FFFFFF" d="M614.165-1027.927c0-2.516,1.16-3.777,3.479-3.777c0.575,0.195,1.348,2.137,2.313,5.811
			c0.964,3.685,1.929,8.281,2.896,13.805c0.962,5.519,1.979,11.619,3.038,18.305c1.066,6.683,2.029,13.072,2.902,19.174
			c0.865,6.104,1.638,11.526,2.313,16.272c0.675,4.75,1.106,7.99,1.307,9.732l11.896-1.453c0.968,0,1.788,0.294,2.47,0.87
			c0.68,0.583,1.021,1.357,1.021,2.327c0,0.971-0.63,1.79-1.89,2.469c-1.264,0.681-2.714,1.214-4.358,1.6
			c-1.646,0.391-3.245,0.681-4.788,0.869c-1.551,0.194-2.711,0.391-3.483,0.582c1.93,7.36,2.993,15.399,3.186,24.116
			c0.191,8.716,0.291,16.853,0.291,24.404c0,4.651-0.143,10.124-0.432,16.416c-0.291,6.292-0.966,12.735-2.029,19.321
			c-1.061,6.583-2.508,13.17-4.342,19.76c-1.838,6.583-4.351,12.395-7.533,17.433c-3.187,5.032-7.094,9.15-11.726,12.349
			c-4.637,3.193-10.137,4.793-16.516,4.793c-8.104,0-15.106-2.567-20.996-7.7c-5.887-5.134-10.808-11.476-14.768-19.031
			c-3.958-7.556-6.854-15.542-8.688-23.968c-1.833-8.427-2.752-16.032-2.752-22.811c0-12.587,1.979-22.997,5.94-31.233
			c3.959-8.23,9.354-14.913,16.215-20.049c6.853-5.129,14.912-9.149,24.185-12.056c9.264-2.904,19.207-5.424,29.829-7.554
			c-0.579-6.584-1.357-13.265-2.318-20.051c-0.968-6.779-1.935-13.604-2.896-20.482c-0.965-6.872-1.835-13.654-2.604-20.338
			C614.552-1014.709,614.165-1021.341,614.165-1027.927z M623.972-939.6c-8.717,1.743-17.044,3.974-24.984,6.683
			c-7.945,2.714-14.87,6.44-20.774,11.188c-5.912,4.748-10.604,10.605-14.095,17.577c-3.481,6.974-5.229,15.499-5.229,25.568
			c0,5.034,0.623,11.139,1.888,18.306c1.26,7.163,3.341,14.042,6.25,20.627c2.903,6.583,6.582,12.252,11.037,17
			c4.454,4.743,9.883,7.118,16.271,7.118c5.036,0,9.299-1.6,12.782-4.795c3.49-3.196,6.393-7.265,8.717-12.204
			c2.327-4.937,4.166-10.559,5.519-16.851c1.356-6.297,2.327-12.494,2.911-18.597c0.58-6.102,0.964-11.914,1.163-17.433
			c0.19-5.521,0.29-10.023,0.29-13.51c0-5.617-0.341-11.427-1.021-17.436c-0.681-6.002-1.016-11.909-1.016-17.724
			c0-0.965,0-1.887,0-2.761C623.681-937.712,623.776-938.627,623.972-939.6z"/>
	</g>
	<g>
		<path fill="#FFFFFF" d="M637.652-947.547c0.39-0.965,1.84-1.838,4.357-2.614c2.517-0.772,5.324-1.454,8.429-2.032
			c3.094-0.582,6.05-1.02,8.858-1.31c2.806-0.29,4.696-0.436,5.668-0.436c1.547,0,2.318,0.871,2.318,2.613l-1.74,2.904
			c-7.361,2.521-15.104,3.777-23.24,3.777c-0.975,0-1.987-0.146-3.052-0.435C638.188-945.368,637.652-946.188,637.652-947.547z
			 M645.208-990.549c1.932,0,3.194,1.844,3.775,5.521c0.584,3.685,0.873,8.234,0.873,13.656c0,3.877-0.05,7.992-0.148,12.346
			c-0.1,4.359-0.141,8.672-0.141,12.935c0,7.36,0.479,13.753,1.448,19.176c0.968,5.423,3.097,8.132,6.395,8.132
			c2.323,0,4.887-0.722,7.696-2.176c2.809-1.456,5.422-3.099,7.846-4.941c2.419-1.838,4.506-3.485,6.25-4.938
			c1.741-1.453,2.804-2.182,3.192-2.182c2.52,0,3.779,1.067,3.779,3.195c0,1.359-1.41,3.195-4.213,5.522
			c-2.81,2.322-6.01,4.553-9.59,6.683c-3.586,2.134-7.17,4.021-10.746,5.662c-3.59,1.647-6.25,2.474-7.996,2.474
			c-2.9,0-5.186-0.874-6.824-2.618c-1.65-1.74-2.909-3.965-3.779-6.683c-0.871-2.709-1.45-5.709-1.742-9.005
			c-0.291-3.291-0.437-6.39-0.437-9.3c0-1.933,0.046-3.674,0.146-5.229c0.096-1.551,0.146-2.903,0.146-4.067
			c0-0.968-0.05-2.564-0.146-4.795c-0.1-2.225-0.146-4.791-0.146-7.699c0-3.291,0.046-6.828,0.146-10.605
			c0.096-3.776,0.291-7.213,0.583-10.313c0.287-3.097,0.729-5.663,1.31-7.698C643.465-989.532,644.235-990.549,645.208-990.549z"/>
	</g>
</g>
</svg>
