<?xml version="1.0" encoding="utf-8"?>
<!-- Generator: Adobe Illustrator 16.0.0, SVG Export Plug-In . SVG Version: 6.00 Build 0)  -->
<!DOCTYPE svg PUBLIC "-//W3C//DTD SVG 1.1//EN" "http://www.w3.org/Graphics/SVG/1.1/DTD/svg11.dtd">
<svg version="1.1" id="Layer_1" xmlns="http://www.w3.org/2000/svg" xmlns:xlink="http://www.w3.org/1999/xlink" x="0px" y="0px"
	 width="139.199px" height="228.953px" viewBox="0 0 139.199 228.953" enable-background="new 0 0 139.199 228.953"
	 xml:space="preserve">
<g>
	<g>
		<defs>
			<rect id="SVGID_1_" x="-187.085" y="1720.241" width="1026" height="775"/>
		</defs>
		<clipPath id="SVGID_2_">
			<use xlink:href="#SVGID_1_"  overflow="visible"/>
		</clipPath>
		<g transform="matrix(1 0 0 1 0 1.220703e-004)" clip-path="url(#SVGID_2_)">
			
				<image overflow="visible" enable-background="new    " width="1914" height="1076" xlink:href="4A6DA269.jpeg"  transform="matrix(0.7198 0 0 0.7203 -403.085 1720.2401)">
			</image>
		</g>
	</g>
</g>
<rect x="-187.085" y="1720.241" opacity="0.5" enable-background="new    " width="1026" height="775"/>
<g>
	<g>
		<path d="M-1084.812,1028.619c0-2.516,1.16-3.777,3.479-3.777c0.575,0.195,1.347,2.137,2.313,5.812
			c0.964,3.684,1.929,8.28,2.897,13.804c0.961,5.52,1.979,11.619,3.038,18.305c1.066,6.684,2.029,13.072,2.902,19.174
			c0.865,6.104,1.638,11.526,2.313,16.272c0.674,4.75,1.106,7.99,1.306,9.733l11.896-1.453c0.967,0,1.788,0.293,2.469,0.87
			c0.68,0.583,1.021,1.356,1.021,2.327c0,0.97-0.63,1.789-1.89,2.469c-1.263,0.68-2.714,1.213-4.358,1.599
			c-1.647,0.392-3.245,0.681-4.788,0.869c-1.551,0.195-2.711,0.391-3.484,0.582c1.93,7.361,2.994,15.4,3.186,24.117
			c0.191,8.715,0.291,16.852,0.291,24.403c0,4.651-0.143,10.125-0.432,16.416c-0.291,6.293-0.965,12.735-2.029,19.321
			c-1.061,6.583-2.508,13.17-4.342,19.761c-1.838,6.582-4.35,12.394-7.533,17.433c-3.187,5.032-7.094,9.149-11.726,12.348
			c-4.636,3.194-10.136,4.793-16.515,4.793c-8.105,0-15.107-2.566-20.996-7.7c-5.887-5.134-10.808-11.476-14.768-19.03
			c-3.958-7.557-6.854-15.542-8.687-23.968c-1.833-8.428-2.752-16.032-2.752-22.812c0-12.587,1.978-22.997,5.94-31.233
			c3.959-8.23,9.354-14.912,16.215-20.049c6.852-5.129,14.912-9.148,24.184-12.056c9.264-2.904,19.208-5.423,29.83-7.553
			c-0.58-6.584-1.358-13.266-2.319-20.052c-0.968-6.778-1.934-13.604-2.896-20.482c-0.965-6.872-1.835-13.654-2.604-20.337
			C-1084.425,1041.837-1084.812,1035.206-1084.812,1028.619z M-1075.005,1116.947c-8.717,1.743-17.044,3.973-24.985,6.682
			c-7.945,2.714-14.87,6.441-20.774,11.188c-5.912,4.748-10.604,10.604-14.095,17.577c-3.481,6.973-5.228,15.498-5.228,25.567
			c0,5.034,0.623,11.14,1.887,18.306c1.26,7.163,3.341,14.043,6.25,20.627c2.904,6.584,6.582,12.252,11.037,17
			c4.455,4.743,9.883,7.118,16.272,7.118c5.036,0,9.299-1.6,12.782-4.795c3.49-3.196,6.393-7.265,8.717-12.204
			c2.327-4.937,4.166-10.559,5.519-16.851c1.356-6.297,2.327-12.494,2.911-18.596c0.58-6.103,0.964-11.914,1.163-17.434
			c0.189-5.521,0.29-10.022,0.29-13.51c0-5.617-0.341-11.427-1.022-17.435c-0.68-6.002-1.015-11.91-1.015-17.725
			c0-0.965,0-1.887,0-2.761C-1075.296,1118.834-1075.2,1117.919-1075.005,1116.947z"/>
	</g>
	<g>
		<path d="M-1061.324,1109c0.39-0.965,1.84-1.838,4.358-2.614c2.516-0.771,5.324-1.454,8.429-2.032
			c3.093-0.582,6.049-1.02,8.858-1.31c2.806-0.29,4.696-0.435,5.668-0.435c1.547,0,2.318,0.87,2.318,2.612l-1.74,2.904
			c-7.361,2.522-15.104,3.778-23.24,3.778c-0.975,0-1.988-0.146-3.052-0.436C-1060.789,1111.179-1061.324,1110.359-1061.324,1109z
			 M-1053.769,1065.998c1.932,0,3.194,1.844,3.775,5.521c0.584,3.684,0.873,8.233,0.873,13.655c0,3.877-0.049,7.992-0.148,12.347
			c-0.1,4.358-0.141,8.672-0.141,12.934c0,7.361,0.48,13.753,1.449,19.176c0.967,5.423,3.096,8.132,6.394,8.132
			c2.323,0,4.887-0.722,7.696-2.176c2.809-1.456,5.422-3.098,7.846-4.941c2.419-1.838,4.506-3.485,6.25-4.938
			c1.741-1.453,2.804-2.181,3.193-2.181c2.519,0,3.779,1.066,3.779,3.194c0,1.359-1.41,3.195-4.213,5.522
			c-2.81,2.322-6.01,4.553-9.59,6.683c-3.586,2.134-7.17,4.021-10.746,5.662c-3.59,1.647-6.25,2.474-7.996,2.474
			c-2.9,0-5.187-0.874-6.824-2.618c-1.651-1.74-2.909-3.965-3.78-6.683c-0.871-2.709-1.45-5.709-1.742-9.005
			c-0.291-3.291-0.436-6.39-0.436-9.3c0-1.933,0.046-3.674,0.145-5.229c0.096-1.551,0.146-2.904,0.146-4.068
			c0-0.967-0.05-2.563-0.146-4.795c-0.099-2.224-0.145-4.791-0.145-7.698c0-3.291,0.046-6.828,0.145-10.605
			c0.096-3.776,0.291-7.213,0.583-10.313c0.287-3.097,0.729-5.663,1.31-7.698
			C-1055.512,1067.015-1054.741,1065.998-1053.769,1065.998z"/>
	</g>
</g>
<g>
	<path d="M160.212,1042.375c0-2.188,1.011-3.288,3.029-3.288c0.502,0.168,1.174,1.856,2.016,5.062
		c0.839,3.206,1.683,7.211,2.522,12.018c0.841,4.813,1.724,10.122,2.65,15.944c0.924,5.815,1.764,11.384,2.522,16.697
		c0.752,5.314,1.426,10.038,2.014,14.171c0.586,4.14,0.968,6.957,1.137,8.475l10.361-1.266c0.844,0,1.559,0.257,2.152,0.763
		c0.588,0.503,0.885,1.183,0.885,2.023c0,0.845-0.551,1.563-1.646,2.15c-1.099,0.591-2.362,1.054-3.795,1.391
		c-1.437,0.343-2.828,0.595-4.173,0.763c-1.348,0.169-2.359,0.338-3.031,0.503c1.682,6.414,2.605,13.41,2.775,21.004
		c0.164,7.591,0.254,14.677,0.254,21.257c0,4.046-0.127,8.814-0.381,14.293c-0.254,5.482-0.84,11.09-1.762,16.827
		c-0.929,5.733-2.187,11.469-3.785,17.205c-1.598,5.732-3.783,10.793-6.56,15.187c-2.774,4.382-6.179,7.969-10.212,10.751
		c-4.036,2.784-8.829,4.173-14.378,4.173c-7.063,0-13.16-2.234-18.289-6.703c-5.125-4.472-9.411-9.994-12.86-16.573
		c-3.447-6.58-5.97-13.538-7.564-20.873c-1.6-7.34-2.396-13.961-2.396-19.864c0-10.962,1.723-20.032,5.17-27.202
		c3.448-7.167,8.154-12.985,14.123-17.458c5.971-4.468,12.988-7.97,21.063-10.502c8.07-2.532,16.729-4.72,25.979-6.579
		c-0.505-5.732-1.183-11.555-2.019-17.458c-0.845-5.902-1.688-11.849-2.522-17.842c-0.845-5.987-1.599-11.893-2.27-17.71
		C160.55,1053.889,160.212,1048.113,160.212,1042.375z M168.755,1119.298c-7.592,1.519-14.848,3.457-21.764,5.818
		c-6.918,2.366-12.947,5.607-18.093,9.741c-5.147,4.138-9.233,9.235-12.271,15.309c-3.037,6.074-4.555,13.499-4.555,22.271
		c0,4.382,0.547,9.698,1.645,15.938c1.095,6.238,2.91,12.232,5.438,17.965c2.533,5.73,5.734,10.669,9.617,14.805
		c3.876,4.129,8.604,6.199,14.169,6.199c4.384,0,8.099-1.391,11.134-4.177c3.039-2.781,5.568-6.325,7.592-10.626
		c2.024-4.302,3.625-9.198,4.808-14.679c1.178-5.479,2.024-10.878,2.53-16.19c0.504-5.316,0.843-10.375,1.015-15.185
		c0.163-4.807,0.25-8.729,0.25-11.766c0-4.89-0.296-9.948-0.886-15.183c-0.594-5.227-0.885-10.374-0.885-15.438
		c0-0.84,0-1.643,0-2.401C168.501,1120.939,168.583,1120.145,168.755,1119.298z"/>
	<path d="M208.479,1132.204c0.843-1.854,2.278-2.785,4.304-2.785c2.023,0,3.371,0.72,4.049,2.154c0.67,1.432,1.01,3.077,1.01,4.933
		c0,1.857-0.127,3.63-0.379,5.313c-0.252,1.688-0.379,3.036-0.379,4.05c0,1.353,0.127,3.081,0.379,5.186
		c0.252,2.11,0.674,4.138,1.267,6.076c0.589,1.938,1.476,3.626,2.657,5.062c1.178,1.43,2.781,2.148,4.806,2.148
		c1.856,0,3.835-0.636,5.947-1.896c2.108-1.267,4.09-2.655,5.946-4.177c1.854-1.521,3.541-2.908,5.061-4.176
		c1.52-1.267,2.697-1.896,3.543-1.896c1.518,0,2.277,0.76,2.277,2.277c0,1.353-1.057,2.998-3.163,4.932
		c-2.111,1.941-4.556,3.844-7.339,5.696c-2.783,1.858-5.609,3.46-8.475,4.806c-2.871,1.354-5.148,2.026-6.834,2.026
		c-2.871,0-5.314-1.014-7.338-3.037c-2.021-2.025-3.713-4.215-5.061-6.582c-1.52,1.86-3.334,3.801-5.441,5.821
		c-2.109,2.022-4.513,3.037-7.21,3.037c-1.521,0-2.784-0.462-3.797-1.389s-1.813-2.112-2.403-3.548
		c-0.592-1.429-1.012-2.908-1.265-4.424c-0.253-1.519-0.38-2.868-0.38-4.05c0-1.854,0.334-4.258,1.011-7.213
		c0.672-2.951,1.687-5.821,3.037-8.604c1.349-2.783,2.993-5.143,4.935-7.085c1.938-1.938,4.178-2.91,6.707-2.91
		C206.96,1131.949,207.804,1132.036,208.479,1132.204z M206.455,1138.53c-2.871,1.684-4.896,4.303-6.074,7.844
		c-1.182,3.54-1.687,6.919-1.518,10.12l0.254,4.808c2.361-1.35,4.342-3.625,5.946-6.831c1.599-3.202,2.403-6.235,2.403-9.108v-6.325
		L206.455,1138.53z"/>
	<path d="M263.64,1126.888c0.506,0,1.266,0.253,2.279,0.763c1.011,0.506,1.936,1.137,2.783,1.896c0.84,0.76,1.601,1.521,2.276,2.281
		c0.672,0.757,1.011,1.389,1.011,1.896c0,1.517-0.973,3.5-2.908,5.945c-1.94,2.443-4.094,4.853-6.453,7.212
		c-2.365,2.362-4.598,4.555-6.705,6.579c-2.112,2.025-3.25,3.372-3.418,4.046c0.168,1.015,0.719,1.859,1.646,2.534
		c0.924,0.672,1.98,1.223,3.162,1.643c1.178,0.424,2.402,0.719,3.668,0.885c1.268,0.173,2.232,0.253,2.912,0.253
		c4.213,0,7.927-0.544,11.132-1.645c3.203-1.094,5.945-2.36,8.226-3.797c2.275-1.431,4.086-2.697,5.438-3.795
		c1.35-1.095,2.279-1.645,2.784-1.645c1.179,0,1.771,0.759,1.771,2.276c-0.846,2.362-2.402,4.557-4.683,6.579
		c-2.274,2.022-4.894,3.755-7.843,5.186c-2.953,1.437-5.945,2.577-8.982,3.417c-3.035,0.848-5.734,1.268-8.098,1.268
		c-2.023,0-4.26-0.211-6.707-0.635c-2.446-0.416-4.766-1.138-6.957-2.149c-2.191-1.013-4.051-2.404-5.564-4.177
		c-1.521-1.768-2.279-3.917-2.279-6.452c0-1.521,0.887-3.199,2.656-5.06c1.773-1.853,3.797-3.837,6.074-5.948
		c2.277-2.106,4.555-4.173,6.83-6.197c2.279-2.025,3.836-3.961,4.684-5.816c-2.024,0.338-4.049,0.629-6.074,0.884
		c-2.023,0.253-4.049,0.378-6.071,0.378c-0.847,0-2.067-0.083-3.668-0.252c-1.606-0.162-2.403-0.925-2.403-2.275l2.022-2.783
		c3.202,0,6.28-0.547,9.235-1.646C258.365,1127.439,261.11,1126.888,263.64,1126.888z"/>
	<path d="M308.173,1126.888c0.508,0,1.267,0.253,2.279,0.763c1.012,0.506,1.938,1.137,2.781,1.896
		c0.844,0.76,1.604,1.521,2.279,2.281c0.671,0.757,1.011,1.389,1.011,1.896c0,1.517-0.972,3.5-2.907,5.945
		c-1.943,2.443-4.095,4.853-6.453,7.212c-2.365,2.362-4.599,4.555-6.707,6.579c-2.109,2.025-3.25,3.372-3.416,4.046
		c0.166,1.015,0.717,1.859,1.645,2.534c0.925,0.672,1.982,1.223,3.164,1.643c1.178,0.424,2.402,0.719,3.668,0.885
		c1.266,0.173,2.236,0.253,2.912,0.253c4.213,0,7.926-0.544,11.133-1.645c3.204-1.094,5.945-2.36,8.225-3.797
		c2.275-1.431,4.086-2.697,5.438-3.795c1.349-1.095,2.278-1.645,2.784-1.645c1.179,0,1.771,0.759,1.771,2.276
		c-0.843,2.362-2.401,4.557-4.682,6.579c-2.275,2.022-4.894,3.755-7.843,5.186c-2.955,1.437-5.945,2.577-8.982,3.417
		c-3.037,0.848-5.736,1.268-8.098,1.268c-2.024,0-4.262-0.211-6.707-0.635c-2.444-0.416-4.766-1.138-6.955-2.149
		c-2.196-1.013-4.051-2.404-5.567-4.177c-1.521-1.768-2.276-3.917-2.276-6.452c0-1.521,0.885-3.199,2.654-5.06
		c1.772-1.853,3.799-3.837,6.074-5.948c2.277-2.106,4.555-4.173,6.832-6.197c2.277-2.025,3.833-3.961,4.682-5.816
		c-2.025,0.338-4.047,0.629-6.07,0.884c-2.025,0.253-4.051,0.378-6.075,0.378c-0.847,0-2.067-0.083-3.669-0.252
		c-1.605-0.162-2.403-0.925-2.403-2.275l2.022-2.783c3.203,0,6.283-0.547,9.236-1.646
		C302.899,1127.439,305.644,1126.888,308.173,1126.888z"/>
	<path d="M362.324,1139.793c0.338-0.842,1.604-1.598,3.793-2.277c2.191-0.671,4.639-1.264,7.34-1.771
		c2.694-0.505,5.27-0.885,7.717-1.138c2.443-0.255,4.088-0.376,4.936-0.376c1.35,0,2.021,0.758,2.021,2.274l-1.518,2.53
		c-6.414,2.191-13.156,3.288-20.244,3.288c-0.845,0-1.727-0.128-2.654-0.38C362.789,1141.691,362.324,1140.975,362.324,1139.793z
		 M368.903,1102.346c1.683,0,2.78,1.606,3.287,4.807c0.506,3.208,0.759,7.174,0.759,11.892c0,3.381-0.044,6.96-0.128,10.757
		c-0.085,3.792-0.125,7.549-0.125,11.26c0,6.413,0.421,11.979,1.265,16.7c0.843,4.724,2.697,7.085,5.567,7.085
		c2.025,0,4.257-0.633,6.707-1.896c2.443-1.267,4.72-2.699,6.83-4.304c2.108-1.603,3.923-3.034,5.44-4.302
		c1.517-1.267,2.443-1.896,2.781-1.896c2.19,0,3.291,0.927,3.291,2.781c0,1.185-1.226,2.785-3.67,4.813
		c-2.447,2.02-5.23,3.962-8.349,5.818c-3.126,1.854-6.245,3.504-9.364,4.935c-3.123,1.429-5.438,2.151-6.957,2.151
		c-2.529,0-4.516-0.761-5.947-2.279c-1.437-1.521-2.529-3.453-3.287-5.819c-0.76-2.36-1.267-4.973-1.52-7.847
		c-0.254-2.866-0.381-5.563-0.381-8.094c0-1.686,0.041-3.204,0.127-4.56c0.084-1.345,0.127-2.528,0.127-3.539
		c0-0.841-0.043-2.234-0.127-4.175c-0.086-1.939-0.127-4.177-0.127-6.705c0-2.866,0.041-5.946,0.127-9.238
		c0.084-3.287,0.254-6.279,0.507-8.981c0.253-2.695,0.632-4.934,1.14-6.703C367.384,1103.229,368.056,1102.346,368.903,1102.346z"/>
	<path d="M413.177,1137.009c3.373,0.34,6.617,0.507,9.742,0.507c3.121,0,6.283,0,9.49,0h12.904c1.35,0,2.021,0.506,2.021,1.521
		c-0.846,1.856-2.742,3.077-5.693,3.67c-2.951,0.592-5.859,0.883-8.729,0.883c-1.182,0-2.277-0.038-3.291-0.125
		c-1.012-0.086-1.857-0.128-2.529-0.128c2.529,3.379,3.795,7.258,3.795,11.641c0,5.23-1.643,9.405-4.932,12.524
		c-3.291,3.125-7.465,4.685-12.527,4.685c-2.53,0-4.723-0.55-6.577-1.646c-1.856-1.096-3.332-2.486-4.429-4.173
		c-1.1-1.688-1.898-3.626-2.404-5.822c-0.505-2.188-0.76-4.384-0.76-6.577c0-1.52,0.128-3.417,0.38-5.693
		c0.253-2.278,0.76-4.513,1.521-6.705c0.758-2.192,1.771-4.086,3.036-5.694c1.267-1.6,2.908-2.403,4.935-2.403
		c0.672,0,1.43,0.377,2.274,1.139c0.845,0.76,1.433,1.479,1.771,2.149v0.25H413.177z M406.853,1145.108l-0.253,4.05
		c0,0.842,0.04,2.066,0.125,3.666c0.084,1.604,0.38,3.164,0.888,4.682c0.504,1.521,1.139,2.828,1.896,3.923
		c0.76,1.101,1.729,1.644,2.91,1.644c2.867,0,5.354-1.092,7.463-3.284c2.109-2.193,3.164-4.724,3.164-7.594
		c0-2.026-0.594-3.455-1.771-4.303c-1.182-0.844-2.656-1.395-4.428-1.646c-1.77-0.251-3.586-0.376-5.441-0.376
		C409.548,1145.868,408.033,1145.614,406.853,1145.108z"/>
	<path d="M440,1139.793c0.338-0.842,1.604-1.598,3.793-2.277c2.191-0.671,4.637-1.264,7.338-1.771
		c2.697-0.505,5.271-0.885,7.717-1.138c2.445-0.255,4.09-0.376,4.938-0.376c1.35,0,2.021,0.758,2.021,2.274l-1.518,2.53
		c-6.414,2.191-13.158,3.288-20.244,3.288c-0.846,0-1.727-0.128-2.654-0.38C440.464,1141.691,440,1140.975,440,1139.793z
		 M446.578,1102.346c1.684,0,2.783,1.606,3.289,4.807c0.504,3.208,0.758,7.174,0.758,11.892c0,3.381-0.043,6.96-0.127,10.757
		c-0.086,3.792-0.127,7.549-0.127,11.26c0,6.413,0.422,11.979,1.266,16.7c0.842,4.724,2.697,7.085,5.568,7.085
		c2.025,0,4.256-0.633,6.705-1.896c2.445-1.267,4.721-2.699,6.83-4.304c2.107-1.603,3.924-3.034,5.439-4.302
		c1.52-1.267,2.443-1.896,2.785-1.896c2.188,0,3.289,0.927,3.289,2.781c0,1.185-1.227,2.785-3.672,4.813
		c-2.445,2.02-5.229,3.962-8.346,5.818c-3.127,1.854-6.246,3.504-9.365,4.935c-3.121,1.429-5.439,2.151-6.957,2.151
		c-2.529,0-4.516-0.761-5.947-2.279c-1.436-1.521-2.529-3.453-3.289-5.819c-0.76-2.36-1.264-4.973-1.516-7.847
		c-0.256-2.866-0.383-5.563-0.383-8.094c0-1.686,0.041-3.204,0.127-4.56c0.084-1.345,0.127-2.528,0.127-3.539
		c0-0.841-0.043-2.234-0.127-4.175c-0.086-1.939-0.127-4.177-0.127-6.705c0-2.866,0.041-5.946,0.127-9.238
		c0.084-3.287,0.256-6.279,0.508-8.981c0.252-2.695,0.631-4.934,1.137-6.703C445.06,1103.229,445.73,1102.346,446.578,1102.346z"/>
	<path d="M495.156,1132.204c0.844-1.854,2.273-2.785,4.301-2.785c2.023,0,3.373,0.72,4.049,2.154
		c0.672,1.432,1.012,3.077,1.012,4.933c0,1.857-0.129,3.63-0.379,5.313c-0.254,1.688-0.381,3.036-0.381,4.05
		c0,1.353,0.127,3.081,0.381,5.186c0.25,2.11,0.674,4.138,1.266,6.076c0.59,1.938,1.477,3.626,2.658,5.062
		c1.178,1.43,2.781,2.148,4.805,2.148c1.855,0,3.836-0.636,5.947-1.896c2.107-1.267,4.088-2.655,5.947-4.177
		c1.854-1.521,3.541-2.908,5.061-4.176c1.518-1.267,2.693-1.896,3.541-1.896c1.518,0,2.277,0.76,2.277,2.277
		c0,1.353-1.057,2.998-3.162,4.932c-2.111,1.941-4.555,3.844-7.34,5.696c-2.781,1.858-5.607,3.46-8.475,4.806
		c-2.871,1.354-5.148,2.026-6.832,2.026c-2.873,0-5.314-1.014-7.338-3.037c-2.025-2.025-3.713-4.215-5.064-6.582
		c-1.516,1.86-3.33,3.801-5.438,5.821c-2.111,2.022-4.516,3.037-7.211,3.037c-1.521,0-2.783-0.462-3.795-1.389
		c-1.014-0.927-1.816-2.112-2.402-3.548c-0.598-1.429-1.016-2.908-1.268-4.424c-0.252-1.519-0.379-2.868-0.379-4.05
		c0-1.854,0.336-4.258,1.012-7.213c0.67-2.951,1.686-5.821,3.037-8.604c1.348-2.783,2.99-5.143,4.934-7.085
		c1.938-1.938,4.176-2.91,6.707-2.91C493.636,1131.949,494.48,1132.036,495.156,1132.204z M493.13,1138.53
		c-2.869,1.684-4.895,4.303-6.074,7.844c-1.182,3.54-1.686,6.919-1.518,10.12l0.252,4.808c2.363-1.35,4.344-3.625,5.947-6.831
		c1.602-3.202,2.404-6.235,2.404-9.108v-6.325L493.13,1138.53z"/>
	<path d="M539.349,1153.965c1.006,2.699,2.432,5.274,4.277,7.717c1.844,2.447,4.443,3.668,7.805,3.668
		c2.516,0,5.072-0.672,7.676-2.023c2.6-1.348,5.031-2.866,7.297-4.553c2.266-1.688,4.244-3.203,5.928-4.558
		c1.684-1.351,2.949-2.022,3.797-2.022c1.52,0,2.275,0.76,2.275,2.276c0,1.518-1.227,3.334-3.668,5.438
		c-2.449,2.113-5.268,4.177-8.453,6.203c-3.193,2.021-6.422,3.714-9.695,5.059c-3.273,1.347-5.744,2.024-7.422,2.024
		c-3.693,0-6.926-1.477-9.693-4.429c-2.768-2.953-5.162-6.787-7.174-11.516c-2.016-4.721-3.65-9.993-4.908-15.813
		c-1.256-5.819-2.262-11.512-3.021-17.082c-0.75-5.566-1.254-10.793-1.51-15.685c-0.25-4.893-0.377-8.687-0.377-11.391
		c0-4.38,0.254-10.243,0.756-17.583c0.506-7.338,1.682-14.549,3.521-21.636c1.852-7.085,4.529-13.196,8.059-18.347
		c3.521-5.145,8.309-7.715,14.348-7.715c4.361,0,7.926,1.604,10.695,4.806c2.768,3.208,4.992,7.003,6.67,11.386
		c1.676,4.394,2.811,8.985,3.398,13.796c0.586,4.806,0.881,8.813,0.881,12.014c0,7.26-0.631,14.552-1.889,21.888
		c-1.258,7.339-3.186,14.514-5.787,21.512s-5.875,13.62-9.816,19.859C549.371,1143.506,544.718,1149.074,539.349,1153.965z
		 M530.58,1094.753c0,8.946,0.58,17.755,1.75,26.44c1.168,8.691,2.752,17.336,4.754,25.939c8.459-9.113,14.762-19.484,18.906-31.124
		c4.143-11.64,6.221-23.535,6.221-35.683c0-2.186-0.09-5.479-0.256-9.864c-0.168-4.386-0.719-8.729-1.643-13.031
		c-0.932-4.303-2.322-8.054-4.176-11.259c-1.859-3.206-4.391-4.811-7.592-4.811c-2.533,0-4.727,1.056-6.58,3.163
		c-1.855,2.11-3.461,4.853-4.807,8.228c-1.354,3.371-2.449,7.125-3.289,11.256c-0.848,4.137-1.52,8.186-2.025,12.146
		c-0.506,3.963-0.846,7.633-1.012,11.006C530.662,1090.541,530.58,1093.067,530.58,1094.753z"/>
</g>
<g>
	<path fill="#FFFFFF" d="M162.212,1994.375c0-2.188,1.011-3.288,3.029-3.288c0.502,0.168,1.174,1.856,2.016,5.062
		c0.839,3.206,1.683,7.211,2.522,12.018c0.841,4.813,1.724,10.122,2.65,15.944c0.924,5.815,1.764,11.384,2.522,16.697
		c0.752,5.314,1.426,10.038,2.014,14.171c0.586,4.14,0.968,6.957,1.137,8.475l10.361-1.265c0.844,0,1.559,0.256,2.152,0.762
		c0.588,0.503,0.885,1.183,0.885,2.024c0,0.844-0.551,1.562-1.646,2.149c-1.099,0.591-2.362,1.054-3.795,1.392
		c-1.437,0.342-2.828,0.594-4.173,0.762c-1.348,0.169-2.359,0.338-3.031,0.503c1.682,6.414,2.605,13.409,2.775,21.004
		c0.164,7.591,0.254,14.677,0.254,21.257c0,4.046-0.127,8.814-0.381,14.293c-0.254,5.482-0.84,11.09-1.762,16.827
		c-0.929,5.733-2.187,11.469-3.785,17.205c-1.598,5.732-3.783,10.793-6.56,15.187c-2.774,4.383-6.179,7.969-10.212,10.751
		c-4.036,2.784-8.829,4.173-14.378,4.173c-7.063,0-13.16-2.234-18.289-6.702c-5.125-4.472-9.411-9.995-12.86-16.574
		c-3.447-6.58-5.97-13.538-7.564-20.873c-1.6-7.34-2.396-13.961-2.396-19.864c0-10.962,1.723-20.031,5.17-27.201
		c3.448-7.168,8.154-12.986,14.123-17.459c5.971-4.468,12.988-7.97,21.063-10.502c8.07-2.531,16.729-4.72,25.979-6.578
		c-0.505-5.733-1.183-11.556-2.019-17.459c-0.845-5.902-1.688-11.849-2.522-17.842c-0.845-5.986-1.599-11.893-2.27-17.71
		C162.55,2005.889,162.212,2000.113,162.212,1994.375z M170.755,2071.298c-7.592,1.519-14.848,3.457-21.764,5.818
		c-6.918,2.366-12.947,5.608-18.093,9.742c-5.147,4.137-9.233,9.235-12.271,15.308c-3.037,6.074-4.555,13.499-4.555,22.271
		c0,4.382,0.547,9.697,1.645,15.938c1.095,6.238,2.91,12.232,5.438,17.965c2.533,5.73,5.734,10.67,9.617,14.806
		c3.876,4.129,8.604,6.198,14.169,6.198c4.384,0,8.099-1.391,11.134-4.177c3.039-2.78,5.568-6.325,7.592-10.626
		c2.024-4.302,3.625-9.197,4.808-14.679c1.178-5.479,2.024-10.878,2.53-16.19c0.504-5.315,0.843-10.375,1.015-15.185
		c0.163-4.806,0.25-8.728,0.25-11.765c0-4.891-0.296-9.949-0.886-15.184c-0.594-5.226-0.885-10.374-0.885-15.437
		c0-0.841,0-1.644,0-2.402C170.501,2072.939,170.583,2072.145,170.755,2071.298z"/>
	<path fill="#FFFFFF" d="M210.479,2084.204c0.843-1.854,2.278-2.785,4.304-2.785c2.023,0,3.371,0.72,4.049,2.154
		c0.67,1.432,1.01,3.077,1.01,4.933c0,1.857-0.127,3.631-0.379,5.313c-0.252,1.688-0.379,3.036-0.379,4.05
		c0,1.354,0.127,3.081,0.379,5.187c0.252,2.11,0.674,4.137,1.267,6.075c0.589,1.938,1.476,3.627,2.657,5.062
		c1.178,1.43,2.781,2.149,4.806,2.149c1.856,0,3.835-0.637,5.947-1.897c2.108-1.267,4.09-2.655,5.946-4.177
		c1.854-1.521,3.541-2.908,5.061-4.176c1.52-1.267,2.697-1.896,3.543-1.896c1.518,0,2.277,0.76,2.277,2.277
		c0,1.353-1.057,2.999-3.163,4.932c-2.111,1.941-4.556,3.844-7.339,5.696c-2.783,1.858-5.609,3.46-8.475,4.806
		c-2.871,1.354-5.148,2.025-6.834,2.025c-2.871,0-5.314-1.013-7.338-3.037c-2.021-2.024-3.713-4.215-5.061-6.582
		c-1.52,1.861-3.334,3.802-5.441,5.822c-2.109,2.022-4.513,3.037-7.21,3.037c-1.521,0-2.784-0.462-3.797-1.389
		s-1.813-2.112-2.403-3.548c-0.592-1.429-1.012-2.908-1.265-4.425c-0.253-1.518-0.38-2.867-0.38-4.05
		c0-1.854,0.334-4.257,1.011-7.212c0.672-2.951,1.687-5.822,3.037-8.604c1.349-2.783,2.993-5.144,4.935-7.085
		c1.938-1.938,4.178-2.91,6.707-2.91C208.96,2083.949,209.804,2084.036,210.479,2084.204z M208.455,2090.53
		c-2.871,1.684-4.896,4.303-6.074,7.844c-1.182,3.54-1.687,6.919-1.518,10.12l0.254,4.809c2.361-1.351,4.342-3.625,5.946-6.832
		c1.599-3.201,2.403-6.235,2.403-9.108v-6.325L208.455,2090.53z"/>
	<path fill="#FFFFFF" d="M265.64,2078.888c0.506,0,1.266,0.253,2.279,0.763c1.011,0.506,1.936,1.137,2.783,1.896
		c0.84,0.76,1.601,1.521,2.276,2.281c0.672,0.757,1.011,1.389,1.011,1.896c0,1.517-0.973,3.5-2.908,5.945
		c-1.94,2.444-4.094,4.854-6.453,7.212c-2.365,2.362-4.598,4.555-6.705,6.579c-2.112,2.025-3.25,3.372-3.418,4.046
		c0.168,1.015,0.719,1.858,1.646,2.534c0.924,0.672,1.98,1.223,3.162,1.643c1.178,0.424,2.402,0.719,3.668,0.885
		c1.268,0.173,2.232,0.252,2.912,0.252c4.213,0,7.927-0.543,11.132-1.644c3.203-1.094,5.945-2.361,8.226-3.797
		c2.275-1.431,4.086-2.697,5.438-3.795c1.35-1.095,2.279-1.645,2.784-1.645c1.179,0,1.771,0.759,1.771,2.276
		c-0.846,2.361-2.402,4.557-4.683,6.579c-2.274,2.022-4.894,3.755-7.843,5.186c-2.953,1.437-5.945,2.577-8.982,3.417
		c-3.035,0.848-5.734,1.268-8.098,1.268c-2.023,0-4.26-0.211-6.707-0.635c-2.446-0.416-4.766-1.138-6.957-2.149
		c-2.191-1.013-4.051-2.404-5.564-4.177c-1.521-1.768-2.279-3.917-2.279-6.452c0-1.521,0.887-3.199,2.656-5.06
		c1.773-1.853,3.797-3.836,6.074-5.948c2.277-2.106,4.555-4.173,6.83-6.197c2.279-2.024,3.836-3.961,4.684-5.815
		c-2.024,0.338-4.049,0.629-6.074,0.883c-2.023,0.253-4.049,0.378-6.071,0.378c-0.847,0-2.067-0.083-3.668-0.252
		c-1.606-0.162-2.403-0.925-2.403-2.275l2.022-2.782c3.202,0,6.28-0.548,9.235-1.646
		C260.365,2079.439,263.11,2078.888,265.64,2078.888z"/>
	<path fill="#FFFFFF" d="M310.173,2078.888c0.508,0,1.267,0.253,2.279,0.763c1.012,0.506,1.938,1.137,2.781,1.896
		c0.844,0.76,1.604,1.521,2.279,2.281c0.671,0.757,1.011,1.389,1.011,1.896c0,1.517-0.972,3.5-2.907,5.945
		c-1.943,2.444-4.095,4.854-6.453,7.212c-2.365,2.362-4.599,4.555-6.707,6.579c-2.109,2.025-3.25,3.372-3.416,4.046
		c0.166,1.015,0.717,1.858,1.645,2.534c0.925,0.672,1.982,1.223,3.164,1.643c1.178,0.424,2.402,0.719,3.668,0.885
		c1.266,0.173,2.236,0.252,2.912,0.252c4.213,0,7.926-0.543,11.133-1.644c3.204-1.094,5.945-2.361,8.225-3.797
		c2.275-1.431,4.086-2.697,5.438-3.795c1.349-1.095,2.278-1.645,2.784-1.645c1.179,0,1.771,0.759,1.771,2.276
		c-0.843,2.361-2.401,4.557-4.682,6.579c-2.275,2.022-4.894,3.755-7.843,5.186c-2.955,1.437-5.945,2.577-8.982,3.417
		c-3.037,0.848-5.736,1.268-8.098,1.268c-2.024,0-4.262-0.211-6.707-0.635c-2.444-0.416-4.766-1.138-6.955-2.149
		c-2.196-1.013-4.051-2.404-5.567-4.177c-1.521-1.768-2.276-3.917-2.276-6.452c0-1.521,0.885-3.199,2.654-5.06
		c1.772-1.853,3.799-3.836,6.074-5.948c2.277-2.106,4.555-4.173,6.832-6.197s3.833-3.961,4.682-5.815
		c-2.025,0.338-4.047,0.629-6.07,0.883c-2.025,0.253-4.051,0.378-6.075,0.378c-0.847,0-2.067-0.083-3.669-0.252
		c-1.605-0.162-2.403-0.925-2.403-2.275l2.022-2.782c3.203,0,6.283-0.548,9.236-1.646
		C304.899,2079.439,307.644,2078.888,310.173,2078.888z"/>
	<path fill="#FFFFFF" d="M364.324,2091.793c0.338-0.842,1.604-1.598,3.793-2.277c2.191-0.671,4.639-1.264,7.34-1.771
		c2.694-0.505,5.27-0.885,7.717-1.139c2.443-0.254,4.088-0.375,4.936-0.375c1.35,0,2.021,0.758,2.021,2.274l-1.518,2.53
		c-6.414,2.19-13.156,3.288-20.244,3.288c-0.845,0-1.727-0.128-2.654-0.38C364.789,2093.691,364.324,2092.975,364.324,2091.793z
		 M370.903,2054.346c1.683,0,2.78,1.606,3.287,4.807c0.506,3.207,0.759,7.174,0.759,11.892c0,3.381-0.044,6.96-0.128,10.757
		c-0.085,3.792-0.125,7.549-0.125,11.26c0,6.414,0.421,11.979,1.265,16.7c0.843,4.725,2.697,7.085,5.567,7.085
		c2.025,0,4.257-0.633,6.707-1.896c2.443-1.267,4.72-2.699,6.83-4.303c2.108-1.604,3.923-3.035,5.44-4.303
		c1.517-1.267,2.443-1.896,2.781-1.896c2.19,0,3.291,0.927,3.291,2.781c0,1.185-1.226,2.785-3.67,4.813
		c-2.447,2.02-5.23,3.962-8.349,5.819c-3.126,1.854-6.245,3.503-9.364,4.934c-3.123,1.429-5.438,2.151-6.957,2.151
		c-2.529,0-4.516-0.76-5.947-2.279c-1.437-1.52-2.529-3.453-3.287-5.819c-0.76-2.36-1.267-4.973-1.52-7.847
		c-0.254-2.866-0.381-5.563-0.381-8.094c0-1.686,0.041-3.204,0.127-4.56c0.084-1.345,0.127-2.528,0.127-3.539
		c0-0.841-0.043-2.235-0.127-4.175c-0.086-1.939-0.127-4.177-0.127-6.705c0-2.866,0.041-5.946,0.127-9.238
		c0.084-3.288,0.254-6.279,0.507-8.981c0.253-2.695,0.632-4.934,1.14-6.703C369.384,2055.229,370.056,2054.346,370.903,2054.346z"/>
	<path fill="#FFFFFF" d="M415.177,2089.009c3.373,0.341,6.617,0.507,9.742,0.507c3.121,0,6.283,0,9.49,0h12.904
		c1.35,0,2.021,0.506,2.021,1.521c-0.846,1.856-2.742,3.077-5.693,3.67c-2.951,0.592-5.859,0.883-8.729,0.883
		c-1.182,0-2.277-0.038-3.291-0.125c-1.012-0.086-1.857-0.128-2.529-0.128c2.529,3.379,3.795,7.258,3.795,11.642
		c0,5.229-1.643,9.405-4.932,12.523c-3.291,3.125-7.465,4.685-12.527,4.685c-2.53,0-4.723-0.549-6.577-1.646
		c-1.856-1.096-3.332-2.486-4.429-4.173c-1.1-1.687-1.898-3.626-2.404-5.822c-0.505-2.188-0.76-4.384-0.76-6.577
		c0-1.52,0.128-3.416,0.38-5.693c0.253-2.278,0.76-4.512,1.521-6.705c0.758-2.192,1.771-4.086,3.036-5.694
		c1.267-1.601,2.908-2.403,4.935-2.403c0.672,0,1.43,0.376,2.274,1.139c0.845,0.76,1.433,1.479,1.771,2.149v0.25H415.177z
		 M408.853,2097.107l-0.253,4.051c0,0.842,0.04,2.065,0.125,3.666c0.084,1.604,0.38,3.164,0.888,4.682
		c0.504,1.52,1.139,2.828,1.896,3.923c0.76,1.101,1.729,1.644,2.91,1.644c2.867,0,5.354-1.092,7.463-3.284
		c2.109-2.193,3.164-4.724,3.164-7.594c0-2.026-0.594-3.455-1.771-4.302c-1.182-0.845-2.656-1.396-4.428-1.647
		c-1.77-0.251-3.586-0.376-5.441-0.376C411.548,2097.868,410.033,2097.614,408.853,2097.107z"/>
	<path fill="#FFFFFF" d="M442,2091.793c0.338-0.842,1.604-1.598,3.793-2.277c2.191-0.671,4.637-1.264,7.338-1.771
		c2.697-0.505,5.271-0.885,7.717-1.139s4.09-0.375,4.938-0.375c1.35,0,2.021,0.758,2.021,2.274l-1.518,2.53
		c-6.414,2.19-13.158,3.288-20.244,3.288c-0.846,0-1.727-0.128-2.654-0.38C442.464,2093.691,442,2092.975,442,2091.793z
		 M448.578,2054.346c1.684,0,2.783,1.606,3.289,4.807c0.504,3.207,0.758,7.174,0.758,11.892c0,3.381-0.043,6.96-0.127,10.757
		c-0.086,3.792-0.127,7.549-0.127,11.26c0,6.414,0.422,11.979,1.266,16.7c0.844,4.725,2.697,7.085,5.568,7.085
		c2.025,0,4.256-0.633,6.705-1.896c2.445-1.267,4.721-2.699,6.83-4.303c2.107-1.604,3.924-3.035,5.439-4.303
		c1.52-1.267,2.443-1.896,2.785-1.896c2.188,0,3.289,0.927,3.289,2.781c0,1.185-1.227,2.785-3.672,4.813
		c-2.445,2.02-5.229,3.962-8.346,5.819c-3.127,1.854-6.246,3.503-9.365,4.934c-3.121,1.429-5.439,2.151-6.957,2.151
		c-2.529,0-4.516-0.76-5.947-2.279c-1.436-1.52-2.529-3.453-3.289-5.819c-0.76-2.36-1.264-4.973-1.516-7.847
		c-0.256-2.866-0.383-5.563-0.383-8.094c0-1.686,0.041-3.204,0.127-4.56c0.084-1.345,0.127-2.528,0.127-3.539
		c0-0.841-0.043-2.235-0.127-4.175c-0.086-1.939-0.127-4.177-0.127-6.705c0-2.866,0.041-5.946,0.127-9.238
		c0.084-3.288,0.256-6.279,0.508-8.981c0.252-2.695,0.631-4.934,1.137-6.703C447.06,2055.229,447.73,2054.346,448.578,2054.346z"/>
	<path fill="#FFFFFF" d="M497.156,2084.204c0.844-1.854,2.273-2.785,4.301-2.785c2.023,0,3.373,0.72,4.049,2.154
		c0.672,1.432,1.012,3.077,1.012,4.933c0,1.857-0.129,3.631-0.379,5.313c-0.254,1.688-0.381,3.036-0.381,4.05
		c0,1.354,0.127,3.081,0.381,5.187c0.25,2.11,0.674,4.137,1.266,6.075c0.59,1.938,1.477,3.627,2.658,5.062
		c1.178,1.43,2.781,2.149,4.805,2.149c1.855,0,3.836-0.637,5.947-1.897c2.107-1.267,4.088-2.655,5.947-4.177
		c1.854-1.521,3.541-2.908,5.061-4.176c1.518-1.267,2.693-1.896,3.541-1.896c1.518,0,2.277,0.76,2.277,2.277
		c0,1.353-1.057,2.999-3.162,4.932c-2.111,1.941-4.555,3.844-7.34,5.696c-2.781,1.858-5.607,3.46-8.475,4.806
		c-2.871,1.354-5.148,2.025-6.832,2.025c-2.873,0-5.314-1.013-7.338-3.037c-2.025-2.024-3.713-4.215-5.064-6.582
		c-1.516,1.861-3.33,3.802-5.438,5.822c-2.111,2.022-4.516,3.037-7.211,3.037c-1.521,0-2.783-0.462-3.795-1.389
		c-1.014-0.927-1.816-2.112-2.402-3.548c-0.598-1.429-1.016-2.908-1.268-4.425c-0.252-1.518-0.379-2.867-0.379-4.05
		c0-1.854,0.336-4.257,1.012-7.212c0.67-2.951,1.686-5.822,3.037-8.604c1.348-2.783,2.99-5.144,4.934-7.085
		c1.938-1.938,4.176-2.91,6.707-2.91C495.636,2083.949,496.48,2084.036,497.156,2084.204z M495.13,2090.53
		c-2.869,1.684-4.895,4.303-6.074,7.844c-1.182,3.54-1.686,6.919-1.518,10.12l0.252,4.809c2.363-1.351,4.344-3.625,5.947-6.832
		c1.602-3.201,2.404-6.235,2.404-9.108v-6.325L495.13,2090.53z"/>
	<path fill="#FFFFFF" d="M541.349,2105.965c1.006,2.699,2.432,5.274,4.277,7.717c1.844,2.447,4.443,3.668,7.805,3.668
		c2.516,0,5.072-0.672,7.676-2.023c2.6-1.347,5.031-2.866,7.297-4.553c2.266-1.688,4.244-3.203,5.928-4.557
		c1.684-1.352,2.949-2.023,3.797-2.023c1.52,0,2.275,0.76,2.275,2.277c0,1.517-1.227,3.334-3.668,5.438
		c-2.449,2.113-5.268,4.178-8.453,6.203c-3.193,2.021-6.422,3.714-9.695,5.059c-3.273,1.348-5.744,2.024-7.422,2.024
		c-3.693,0-6.926-1.476-9.693-4.428c-2.768-2.953-5.162-6.788-7.174-11.517c-2.016-4.721-3.65-9.992-4.908-15.813
		c-1.256-5.819-2.262-11.512-3.021-17.081c-0.75-5.567-1.254-10.793-1.51-15.686c-0.25-4.893-0.377-8.686-0.377-11.391
		c0-4.38,0.254-10.243,0.756-17.583c0.506-7.337,1.682-14.548,3.521-21.635c1.852-7.086,4.529-13.197,8.059-18.348
		c3.521-5.144,8.309-7.715,14.348-7.715c4.361,0,7.926,1.604,10.695,4.806c2.768,3.208,4.992,7.003,6.67,11.386
		c1.676,4.394,2.811,8.985,3.398,13.796c0.586,4.806,0.881,8.813,0.881,12.014c0,7.26-0.631,14.552-1.889,21.888
		c-1.258,7.34-3.186,14.514-5.787,21.512c-2.602,6.999-5.875,13.621-9.816,19.859
		C551.371,2095.506,546.718,2101.074,541.349,2105.965z M532.58,2046.753c0,8.946,0.58,17.755,1.75,26.44
		c1.168,8.691,2.752,17.336,4.754,25.939c8.459-9.113,14.762-19.483,18.906-31.124c4.143-11.64,6.221-23.535,6.221-35.683
		c0-2.186-0.09-5.479-0.256-9.864c-0.168-4.386-0.719-8.729-1.643-13.031c-0.932-4.303-2.322-8.054-4.176-11.259
		c-1.859-3.206-4.391-4.811-7.592-4.811c-2.533,0-4.727,1.056-6.58,3.164c-1.855,2.109-3.461,4.852-4.807,8.227
		c-1.354,3.371-2.449,7.125-3.289,11.256c-0.848,4.137-1.52,8.186-2.025,12.147s-0.846,7.632-1.012,11.005
		C532.662,2042.541,532.58,2045.067,532.58,2046.753z"/>
</g>
<g>
	<g>
		<defs>
			<rect id="SVGID_3_" x="-187.085" y="2578.241" width="1026" height="775"/>
		</defs>
		<clipPath id="SVGID_4_">
			<use xlink:href="#SVGID_3_"  overflow="visible"/>
		</clipPath>
		<g clip-path="url(#SVGID_4_)">
			
				<image overflow="visible" enable-background="new    " width="1914" height="1078" xlink:href="4A6DA26B.jpeg"  transform="matrix(0.7198 0 0 0.7189 -403.085 2578.2881)">
			</image>
		</g>
	</g>
</g>
<rect x="-187.085" y="2578.241" opacity="0.5" enable-background="new    " width="1026" height="775"/>
<g>
	<path fill="#FFFFFF" d="M764.238,3203.04c0.338,2.705,0.689,5.428,1.078,8.182c0.598,4.271,1.195,8.511,1.799,12.722
		c0.596,4.214,1.08,8.361,1.438,12.45c-6.596,1.322-12.77,2.888-18.523,4.69c-5.756,1.805-10.764,4.302-15.02,7.486
		c-4.26,3.188-7.609,7.339-10.066,12.449c-2.461,5.115-3.689,11.58-3.689,19.396c0,4.209,0.57,8.933,1.709,14.165
		c0.277,1.274,0.594,2.532,0.949,3.773c3.848,4.384,8.348,8.181,13.354,11.23c-1.342-1.962-2.531-4.104-3.561-6.437
		c-1.807-4.089-3.1-8.361-3.881-12.81c-0.785-4.45-1.172-8.241-1.172-11.368c0-6.252,1.084-11.547,3.246-15.877
		c2.166-4.33,5.08-7.968,8.752-10.916c3.668-2.947,7.967-5.262,12.9-6.947c4.934-1.683,10.104-3.065,15.518-4.148
		c-0.121,0.604-0.184,1.172-0.184,1.713v1.715c0,3.61,0.209,7.279,0.631,11.007c0.424,3.73,0.637,7.338,0.637,10.826
		c0,2.165-0.063,4.96-0.182,8.39c-0.123,3.428-0.361,7.037-0.723,10.826c-0.363,3.789-0.965,7.638-1.807,11.548
		c-0.842,3.907-1.982,7.398-3.428,10.464c-1.443,3.067-3.246,5.595-5.414,7.58c-0.77,0.705-1.604,1.279-2.494,1.734
		c3.307,0.645,6.717,1.002,10.201,1.053c0.633-0.795,1.234-1.631,1.795-2.517c1.979-3.13,3.537-6.738,4.68-10.826
		c1.139-4.092,2.037-8.183,2.695-12.271c0.66-4.09,1.078-8.092,1.26-11.998c0.18-3.907,0.268-7.307,0.268-10.194
		c0-4.69-0.061-9.743-0.18-15.155c-0.119-5.413-0.779-10.404-1.979-14.977c0.48-0.119,1.201-0.24,2.164-0.361
		c0.852-0.104,1.734-0.268,2.639-0.47c-0.006,0.075-0.008,0.146-0.014,0.227c-0.061,0.966-0.09,2.048-0.09,3.247
		c0,1.807,0.09,3.73,0.271,5.774c0.182,2.047,0.541,3.909,1.082,5.593c0.541,1.688,1.322,3.068,2.348,4.148
		c1.018,1.084,2.438,1.627,4.238,1.627c1.084,0,2.736-0.514,4.965-1.536c2.221-1.021,4.447-2.191,6.674-3.518
		c2.223-1.321,4.211-2.707,5.955-4.148c1.74-1.445,2.617-2.585,2.617-3.431c0-1.32-0.783-1.983-2.348-1.983
		c-0.242,0-0.902,0.452-1.982,1.354c-1.084,0.9-2.379,1.925-3.881,3.065c-1.506,1.146-3.129,2.164-4.873,3.068
		c-1.744,0.903-3.336,1.352-4.779,1.352c-2.049,0-3.371-1.683-3.971-5.051c-0.57-3.198-0.865-6.945-0.895-11.229
		c3.422-0.33,6.729-1.03,9.916-2.123l1.08-1.805c0-1.082-0.479-1.623-1.439-1.623c-0.604,0-1.777,0.09-3.52,0.271
		c-1.746,0.18-3.58,0.451-5.502,0.813c-0.178,0.034-0.348,0.07-0.521,0.104c0.014-1.44,0.035-2.89,0.068-4.347
		c0.063-2.703,0.092-5.261,0.092-7.668c0-3.365-0.18-6.191-0.543-8.479c-0.359-2.284-1.145-3.429-2.344-3.429
		c-0.604,0-1.082,0.632-1.443,1.895c-0.359,1.266-0.635,2.859-0.813,4.781c-0.182,1.926-0.303,4.061-0.363,6.405
		c-0.061,2.346-0.09,4.542-0.09,6.586c0,1.806,0.029,3.399,0.09,4.78c0.014,0.298,0.025,0.572,0.035,0.834
		c-0.148,0.053-0.289,0.106-0.422,0.162l-4.939,0.604c-0.123-1.083-0.393-3.096-0.811-6.045c-0.42-2.947-0.898-6.314-1.436-10.105
		c-0.543-3.789-1.143-7.757-1.805-11.906c-0.24-1.525-0.479-2.985-0.713-4.413c-0.799-0.032-1.602-0.054-2.408-0.054
		C766.167,3202.966,765.201,3202.991,764.238,3203.04z"/>
</g>
<rect x="-825.085" y="746.241" width="512" height="768"/>
<g>
	<g>
		<path fill="#FFFFFF" d="M-571.495,1028.619c0-2.516,1.16-3.777,3.479-3.777c0.575,0.195,1.347,2.137,2.313,5.812
			c0.964,3.684,1.929,8.28,2.897,13.804c0.961,5.52,1.979,11.619,3.038,18.305c1.066,6.684,2.029,13.072,2.902,19.174
			c0.865,6.104,1.638,11.526,2.313,16.272c0.674,4.75,1.106,7.99,1.306,9.733l11.896-1.453c0.967,0,1.788,0.293,2.469,0.87
			c0.68,0.583,1.021,1.356,1.021,2.327c0,0.97-0.63,1.789-1.89,2.469c-1.263,0.68-2.714,1.213-4.358,1.599
			c-1.647,0.392-3.245,0.681-4.788,0.869c-1.551,0.195-2.711,0.391-3.484,0.582c1.93,7.361,2.994,15.4,3.186,24.117
			c0.191,8.715,0.291,16.852,0.291,24.403c0,4.651-0.143,10.125-0.432,16.416c-0.291,6.293-0.965,12.735-2.029,19.321
			c-1.061,6.583-2.508,13.17-4.342,19.761c-1.838,6.582-4.35,12.394-7.533,17.433c-3.187,5.032-7.094,9.149-11.726,12.348
			c-4.636,3.194-10.136,4.793-16.515,4.793c-8.105,0-15.107-2.566-20.996-7.7c-5.887-5.134-10.808-11.476-14.768-19.03
			c-3.958-7.557-6.854-15.542-8.687-23.968c-1.833-8.428-2.752-16.032-2.752-22.812c0-12.587,1.978-22.997,5.94-31.233
			c3.959-8.23,9.354-14.912,16.215-20.049c6.852-5.129,14.912-9.148,24.184-12.056c9.264-2.904,19.208-5.423,29.83-7.553
			c-0.58-6.584-1.358-13.266-2.319-20.052c-0.968-6.778-1.934-13.604-2.896-20.482c-0.965-6.872-1.835-13.654-2.604-20.337
			C-571.108,1041.837-571.495,1035.206-571.495,1028.619z M-561.688,1116.947c-8.717,1.743-17.044,3.973-24.985,6.682
			c-7.945,2.714-14.87,6.441-20.774,11.188c-5.912,4.748-10.604,10.604-14.095,17.577c-3.481,6.973-5.228,15.498-5.228,25.567
			c0,5.034,0.623,11.14,1.887,18.306c1.26,7.163,3.341,14.043,6.25,20.627c2.904,6.584,6.582,12.252,11.037,17
			c4.455,4.743,9.883,7.118,16.271,7.118c5.036,0,9.299-1.6,12.782-4.795c3.49-3.196,6.393-7.265,8.717-12.204
			c2.327-4.937,4.166-10.559,5.519-16.851c1.356-6.297,2.327-12.494,2.911-18.596c0.58-6.103,0.964-11.914,1.163-17.434
			c0.19-5.521,0.29-10.022,0.29-13.51c0-5.617-0.341-11.427-1.022-17.435c-0.68-6.002-1.015-11.91-1.015-17.725
			c0-0.965,0-1.887,0-2.761C-561.979,1118.834-561.884,1117.919-561.688,1116.947z"/>
	</g>
	<g>
		<path fill="#FFFFFF" d="M-548.008,1109c0.39-0.965,1.84-1.838,4.358-2.614c2.516-0.771,5.324-1.454,8.429-2.032
			c3.093-0.582,6.049-1.02,8.858-1.31c2.806-0.29,4.696-0.435,5.668-0.435c1.547,0,2.318,0.87,2.318,2.612l-1.74,2.904
			c-7.361,2.522-15.104,3.778-23.24,3.778c-0.975,0-1.988-0.146-3.052-0.436C-547.473,1111.179-548.008,1110.359-548.008,1109z
			 M-540.452,1065.998c1.932,0,3.194,1.844,3.775,5.521c0.584,3.684,0.873,8.233,0.873,13.655c0,3.877-0.049,7.992-0.148,12.347
			c-0.1,4.358-0.141,8.672-0.141,12.934c0,7.361,0.479,13.753,1.449,19.176c0.967,5.423,3.096,8.132,6.394,8.132
			c2.323,0,4.887-0.722,7.696-2.176c2.809-1.456,5.422-3.098,7.846-4.941c2.419-1.838,4.506-3.485,6.25-4.938
			c1.741-1.453,2.804-2.181,3.193-2.181c2.519,0,3.779,1.066,3.779,3.194c0,1.359-1.41,3.195-4.213,5.522
			c-2.81,2.322-6.01,4.553-9.59,6.683c-3.586,2.134-7.17,4.021-10.746,5.662c-3.59,1.647-6.25,2.474-7.996,2.474
			c-2.9,0-5.186-0.874-6.824-2.618c-1.651-1.74-2.909-3.965-3.78-6.683c-0.871-2.709-1.45-5.709-1.742-9.005
			c-0.291-3.291-0.436-6.39-0.436-9.3c0-1.933,0.046-3.674,0.145-5.229c0.096-1.551,0.146-2.904,0.146-4.068
			c0-0.967-0.05-2.563-0.146-4.795c-0.099-2.224-0.145-4.791-0.145-7.698c0-3.291,0.046-6.828,0.145-10.605
			c0.096-3.776,0.291-7.213,0.583-10.313c0.287-3.097,0.729-5.663,1.31-7.698C-542.195,1067.015-541.425,1065.998-540.452,1065.998z
			"/>
	</g>
</g>
<g>
	<path fill="#FFFFFF" d="M-2223.788,278.375c0-2.188,1.011-3.288,3.03-3.288c0.502,0.168,1.173,1.856,2.016,5.062
		c0.838,3.205,1.682,7.211,2.522,12.018c0.84,4.813,1.724,10.122,2.649,15.944c0.924,5.815,1.764,11.384,2.523,16.697
		c0.752,5.314,1.426,10.038,2.014,14.171c0.585,4.14,0.967,6.956,1.136,8.475l10.362-1.265c0.843,0,1.558,0.256,2.151,0.762
		c0.589,0.503,0.886,1.183,0.886,2.023c0,0.845-0.551,1.563-1.646,2.15c-1.098,0.591-2.362,1.054-3.795,1.391
		c-1.436,0.343-2.828,0.595-4.173,0.763c-1.347,0.169-2.359,0.338-3.031,0.503c1.681,6.414,2.605,13.41,2.776,21.004
		c0.164,7.591,0.253,14.677,0.253,21.257c0,4.046-0.127,8.814-0.38,14.293c-0.255,5.482-0.84,11.09-1.763,16.827
		c-0.928,5.733-2.186,11.469-3.784,17.205c-1.598,5.732-3.784,10.793-6.561,15.187c-2.774,4.382-6.179,7.968-10.212,10.751
		c-4.036,2.784-8.829,4.173-14.378,4.173c-7.063,0-13.16-2.234-18.289-6.702c-5.125-4.473-9.411-9.995-12.861-16.574
		c-3.446-6.58-5.969-13.538-7.564-20.873c-1.6-7.34-2.397-13.961-2.397-19.864c0-10.962,1.724-20.032,5.171-27.202
		c3.448-7.167,8.154-12.985,14.123-17.458c5.971-4.468,12.988-7.97,21.062-10.502c8.07-2.532,16.728-4.72,25.979-6.579
		c-0.505-5.732-1.183-11.555-2.019-17.458c-0.844-5.902-1.688-11.849-2.523-17.842c-0.844-5.987-1.598-11.893-2.269-17.71
		C-2223.449,289.889-2223.788,284.113-2223.788,278.375z M-2215.245,355.298c-7.592,1.519-14.848,3.457-21.764,5.818
		c-6.918,2.366-12.946,5.607-18.092,9.742c-5.147,4.137-9.233,9.234-12.271,15.308c-3.037,6.074-4.554,13.499-4.554,22.271
		c0,4.382,0.546,9.697,1.644,15.938c1.095,6.238,2.91,12.232,5.438,17.965c2.533,5.73,5.733,10.669,9.617,14.805
		c3.876,4.13,8.604,6.199,14.169,6.199c4.384,0,8.098-1.391,11.133-4.177c3.039-2.781,5.569-6.325,7.592-10.626
		c2.025-4.302,3.626-9.198,4.808-14.679c1.178-5.479,2.025-10.878,2.53-16.19c0.505-5.315,0.843-10.375,1.015-15.185
		c0.163-4.807,0.25-8.729,0.25-11.766c0-4.89-0.296-9.948-0.885-15.183c-0.594-5.227-0.885-10.374-0.885-15.438
		c0-0.84,0-1.643,0-2.401C-2215.499,356.94-2215.416,356.144-2215.245,355.298z"/>
	<path fill="#FFFFFF" d="M-2175.521,368.204c0.843-1.854,2.278-2.785,4.304-2.785c2.022,0,3.371,0.72,4.048,2.154
		c0.671,1.432,1.011,3.077,1.011,4.933c0,1.857-0.127,3.63-0.379,5.313c-0.252,1.688-0.379,3.036-0.379,4.05
		c0,1.353,0.127,3.081,0.379,5.186c0.252,2.11,0.673,4.138,1.267,6.076c0.589,1.938,1.475,3.626,2.657,5.062
		c1.178,1.43,2.781,2.148,4.806,2.148c1.856,0,3.835-0.636,5.947-1.896c2.108-1.268,4.09-2.655,5.947-4.178
		c1.854-1.52,3.54-2.907,5.061-4.175c1.519-1.267,2.697-1.896,3.543-1.896c1.518,0,2.277,0.76,2.277,2.276
		c0,1.354-1.056,2.999-3.163,4.933c-2.111,1.941-4.555,3.844-7.339,5.695c-2.783,1.859-5.608,3.46-8.474,4.807
		c-2.872,1.354-5.149,2.025-6.834,2.025c-2.872,0-5.314-1.013-7.338-3.037c-2.022-2.024-3.713-4.215-5.062-6.581
		c-1.519,1.86-3.333,3.801-5.44,5.821c-2.11,2.022-4.513,3.037-7.21,3.037c-1.521,0-2.784-0.462-3.797-1.389
		s-1.814-2.112-2.403-3.548c-0.592-1.43-1.012-2.908-1.265-4.425c-0.253-1.518-0.38-2.867-0.38-4.05
		c0-1.854,0.334-4.257,1.011-7.212c0.672-2.952,1.687-5.822,3.037-8.604c1.349-2.783,2.993-5.144,4.935-7.085
		c1.938-1.938,4.177-2.91,6.707-2.91C-2177.04,367.949-2176.196,368.036-2175.521,368.204z M-2177.545,374.53
		c-2.872,1.684-4.896,4.303-6.074,7.844c-1.182,3.54-1.687,6.919-1.518,10.12l0.253,4.808c2.362-1.35,4.342-3.625,5.947-6.831
		c1.599-3.202,2.404-6.235,2.404-9.108v-6.325L-2177.545,374.53z"/>
	<path fill="#FFFFFF" d="M-2120.36,362.888c0.506,0,1.267,0.253,2.279,0.763c1.011,0.506,1.936,1.137,2.783,1.896
		c0.841,0.76,1.601,1.521,2.277,2.281c0.672,0.757,1.01,1.389,1.01,1.896c0,1.517-0.972,3.5-2.908,5.945
		c-1.94,2.444-4.093,4.854-6.452,7.212c-2.366,2.362-4.599,4.555-6.706,6.579c-2.112,2.025-3.25,3.372-3.418,4.046
		c0.168,1.015,0.719,1.859,1.647,2.534c0.923,0.672,1.98,1.223,3.162,1.643c1.178,0.425,2.403,0.72,3.668,0.885
		c1.267,0.173,2.232,0.253,2.912,0.253c4.213,0,7.927-0.544,11.132-1.645c3.203-1.094,5.945-2.36,8.225-3.797
		c2.276-1.431,4.086-2.697,5.438-3.795c1.349-1.095,2.279-1.644,2.784-1.644c1.179,0,1.771,0.758,1.771,2.275
		c-0.846,2.362-2.403,4.557-4.683,6.579c-2.275,2.023-4.895,3.755-7.843,5.187c-2.953,1.436-5.945,2.576-8.982,3.416
		c-3.035,0.848-5.734,1.268-8.098,1.268c-2.024,0-4.26-0.211-6.707-0.634c-2.446-0.416-4.767-1.139-6.957-2.15
		c-2.192-1.013-4.05-2.404-5.565-4.177c-1.52-1.768-2.278-3.917-2.278-6.452c0-1.52,0.886-3.199,2.656-5.059
		c1.773-1.854,3.797-3.837,6.074-5.949c2.277-2.106,4.555-4.173,6.83-6.197c2.279-2.024,3.836-3.961,4.683-5.815
		c-2.024,0.338-4.048,0.629-6.073,0.883c-2.024,0.253-4.049,0.378-6.072,0.378c-0.847,0-2.068-0.083-3.668-0.252
		c-1.606-0.162-2.404-0.925-2.404-2.275l2.023-2.783c3.202,0,6.281-0.547,9.236-1.646
		C-2125.635,363.439-2122.89,362.888-2120.36,362.888z"/>
	<path fill="#FFFFFF" d="M-2075.826,362.888c0.507,0,1.267,0.253,2.279,0.763c1.011,0.506,1.937,1.137,2.781,1.896
		c0.843,0.76,1.603,1.521,2.279,2.281c0.671,0.757,1.011,1.389,1.011,1.896c0,1.517-0.971,3.5-2.908,5.945
		c-1.943,2.444-4.094,4.854-6.453,7.212c-2.364,2.362-4.598,4.555-6.707,6.579c-2.108,2.025-3.249,3.372-3.416,4.046
		c0.167,1.015,0.718,1.859,1.646,2.534c0.925,0.672,1.981,1.223,3.164,1.643c1.178,0.425,2.403,0.72,3.668,0.885
		c1.266,0.173,2.236,0.253,2.912,0.253c4.213,0,7.926-0.544,11.133-1.645c3.204-1.094,5.945-2.36,8.225-3.797
		c2.275-1.431,4.086-2.697,5.438-3.795c1.349-1.095,2.279-1.644,2.785-1.644c1.178,0,1.77,0.758,1.77,2.275
		c-0.843,2.362-2.402,4.557-4.682,6.579c-2.275,2.023-4.893,3.755-7.843,5.187c-2.954,1.436-5.945,2.576-8.982,3.416
		c-3.037,0.848-5.736,1.268-8.098,1.268c-2.024,0-4.261-0.211-6.706-0.634c-2.445-0.416-4.766-1.139-6.956-2.15
		c-2.196-1.013-4.05-2.404-5.567-4.177c-1.52-1.768-2.277-3.917-2.277-6.452c0-1.52,0.885-3.199,2.655-5.059
		c1.772-1.854,3.799-3.837,6.074-5.949c2.277-2.106,4.555-4.173,6.832-6.197c2.277-2.024,3.833-3.961,4.681-5.815
		c-2.025,0.338-4.046,0.629-6.07,0.883c-2.025,0.253-4.05,0.378-6.075,0.378c-0.847,0-2.068-0.083-3.669-0.252
		c-1.605-0.162-2.403-0.925-2.403-2.275l2.022-2.783c3.203,0,6.284-0.547,9.237-1.646
		C-2081.101,363.439-2078.356,362.888-2075.826,362.888z"/>
	<path fill="#FFFFFF" d="M-2021.677,375.793c0.338-0.842,1.604-1.598,3.793-2.277c2.192-0.671,4.639-1.264,7.34-1.771
		c2.695-0.505,5.27-0.885,7.717-1.138c2.443-0.255,4.088-0.376,4.936-0.376c1.349,0,2.021,0.758,2.021,2.274l-1.517,2.53
		c-6.414,2.19-13.157,3.288-20.244,3.288c-0.845,0-1.727-0.128-2.655-0.38C-2021.212,377.691-2021.677,376.975-2021.677,375.793z
		 M-2015.097,338.346c1.683,0,2.78,1.606,3.287,4.807c0.506,3.208,0.759,7.174,0.759,11.892c0,3.381-0.044,6.96-0.128,10.757
		c-0.085,3.792-0.125,7.549-0.125,11.26c0,6.413,0.42,11.979,1.264,16.7c0.843,4.725,2.697,7.085,5.568,7.085
		c2.025,0,4.257-0.633,6.707-1.896c2.443-1.267,4.719-2.699,6.83-4.303c2.109-1.604,3.923-3.035,5.44-4.303
		c1.517-1.267,2.444-1.896,2.782-1.896c2.189,0,3.29,0.927,3.29,2.781c0,1.185-1.225,2.785-3.669,4.813
		c-2.447,2.02-5.231,3.962-8.349,5.819c-3.126,1.854-6.245,3.503-9.364,4.934c-3.123,1.429-5.438,2.151-6.957,2.151
		c-2.53,0-4.516-0.761-5.947-2.279c-1.437-1.52-2.53-3.453-3.288-5.819c-0.76-2.36-1.266-4.973-1.519-7.847
		c-0.254-2.866-0.381-5.563-0.381-8.094c0-1.686,0.041-3.204,0.127-4.56c0.084-1.345,0.127-2.527,0.127-3.539
		c0-0.841-0.043-2.234-0.127-4.175c-0.086-1.939-0.127-4.177-0.127-6.705c0-2.865,0.041-5.945,0.127-9.237
		c0.084-3.288,0.254-6.28,0.507-8.982c0.253-2.695,0.631-4.933,1.14-6.703C-2016.616,339.229-2015.944,338.346-2015.097,338.346z"/>
	<path fill="#FFFFFF" d="M-1970.823,373.009c3.374,0.34,6.618,0.507,9.742,0.507c3.121,0,6.284,0,9.49,0h12.904
		c1.35,0,2.023,0.506,2.023,1.521c-0.846,1.856-2.742,3.077-5.694,3.67c-2.952,0.592-5.86,0.883-8.729,0.883
		c-1.181,0-2.277-0.038-3.29-0.125c-1.012-0.086-1.857-0.128-2.529-0.128c2.529,3.379,3.795,7.258,3.795,11.641
		c0,5.23-1.643,9.405-4.933,12.524c-3.29,3.125-7.465,4.684-12.527,4.684c-2.53,0-4.722-0.549-6.577-1.646
		c-1.857-1.096-3.332-2.486-4.428-4.173c-1.1-1.688-1.899-3.626-2.405-5.822c-0.505-2.188-0.759-4.384-0.759-6.577
		c0-1.52,0.127-3.417,0.379-5.693c0.253-2.278,0.76-4.513,1.521-6.705c0.758-2.192,1.771-4.086,3.037-5.694
		c1.266-1.6,2.908-2.403,4.934-2.403c0.672,0,1.43,0.376,2.275,1.139c0.844,0.76,1.432,1.479,1.771,2.149L-1970.823,373.009
		L-1970.823,373.009z M-1977.147,381.108l-0.253,4.05c0,0.842,0.04,2.065,0.125,3.666c0.084,1.604,0.38,3.164,0.888,4.682
		c0.503,1.521,1.138,2.828,1.896,3.923c0.76,1.101,1.729,1.644,2.911,1.644c2.867,0,5.354-1.092,7.463-3.284
		c2.109-2.193,3.163-4.724,3.163-7.594c0-2.026-0.593-3.455-1.771-4.303c-1.182-0.844-2.657-1.395-4.428-1.646
		c-1.77-0.251-3.586-0.376-5.441-0.376C-1974.452,381.868-1975.968,381.614-1977.147,381.108z"/>
	<path fill="#FFFFFF" d="M-1944.001,375.793c0.338-0.842,1.604-1.598,3.793-2.277c2.192-0.671,4.637-1.264,7.338-1.771
		c2.697-0.505,5.271-0.885,7.718-1.138c2.444-0.255,4.089-0.376,4.937-0.376c1.349,0,2.021,0.758,2.021,2.274l-1.518,2.53
		c-6.413,2.19-13.158,3.288-20.243,3.288c-0.847,0-1.727-0.128-2.655-0.38C-1943.535,377.691-1944.001,376.975-1944.001,375.793z
		 M-1937.423,338.346c1.685,0,2.783,1.606,3.29,4.807c0.503,3.208,0.758,7.174,0.758,11.892c0,3.381-0.044,6.96-0.128,10.757
		c-0.085,3.792-0.127,7.549-0.127,11.26c0,6.413,0.422,11.979,1.266,16.7c0.843,4.725,2.697,7.085,5.568,7.085
		c2.025,0,4.257-0.633,6.705-1.896c2.445-1.267,4.721-2.699,6.831-4.303c2.108-1.604,3.924-3.035,5.439-4.303
		c1.52-1.267,2.444-1.896,2.785-1.896c2.188,0,3.29,0.927,3.29,2.781c0,1.185-1.228,2.785-3.672,4.813
		c-2.445,2.02-5.229,3.962-8.347,5.819c-3.126,1.854-6.245,3.503-9.364,4.934c-3.122,1.429-5.439,2.151-6.957,2.151
		c-2.53,0-4.516-0.761-5.947-2.279c-1.436-1.52-2.53-3.453-3.29-5.819c-0.76-2.36-1.263-4.973-1.516-7.847
		c-0.255-2.866-0.382-5.563-0.382-8.094c0-1.686,0.04-3.204,0.127-4.56c0.084-1.345,0.127-2.527,0.127-3.539
		c0-0.841-0.043-2.234-0.127-4.175c-0.087-1.939-0.127-4.177-0.127-6.705c0-2.865,0.04-5.945,0.127-9.237
		c0.084-3.288,0.255-6.28,0.508-8.982c0.252-2.695,0.63-4.933,1.137-6.703C-1938.94,339.229-1938.27,338.346-1937.423,338.346z"/>
	<path fill="#FFFFFF" d="M-1888.845,368.204c0.844-1.854,2.275-2.785,4.301-2.785c2.024,0,3.373,0.72,4.049,2.154
		c0.673,1.432,1.012,3.077,1.012,4.933c0,1.857-0.128,3.63-0.379,5.313c-0.254,1.688-0.38,3.036-0.38,4.05
		c0,1.353,0.126,3.081,0.38,5.186c0.251,2.11,0.673,4.138,1.266,6.076c0.589,1.938,1.476,3.626,2.657,5.062
		c1.178,1.43,2.782,2.148,4.806,2.148c1.854,0,3.835-0.636,5.947-1.896c2.107-1.268,4.088-2.655,5.947-4.178
		c1.854-1.52,3.542-2.907,5.061-4.175c1.518-1.267,2.695-1.896,3.542-1.896c1.518,0,2.277,0.76,2.277,2.276
		c0,1.354-1.056,2.999-3.162,4.933c-2.112,1.941-4.555,3.844-7.34,5.695c-2.782,1.859-5.608,3.46-8.475,4.807
		c-2.87,1.354-5.147,2.025-6.832,2.025c-2.872,0-5.314-1.013-7.338-3.037c-2.025-2.024-3.713-4.215-5.063-6.581
		c-1.516,1.86-3.331,3.801-5.439,5.821c-2.11,2.022-4.515,3.037-7.211,3.037c-1.521,0-2.782-0.462-3.795-1.389
		c-1.012-0.927-1.815-2.112-2.402-3.548c-0.597-1.43-1.015-2.908-1.268-4.425c-0.252-1.518-0.379-2.867-0.379-4.05
		c0-1.854,0.336-4.257,1.012-7.212c0.671-2.952,1.686-5.822,3.037-8.604c1.349-2.783,2.992-5.144,4.934-7.085
		c1.938-1.938,4.177-2.91,6.707-2.91C-1890.364,367.949-1889.521,368.036-1888.845,368.204z M-1890.869,374.53
		c-2.87,1.684-4.895,4.303-6.074,7.844c-1.182,3.54-1.687,6.919-1.519,10.12l0.253,4.808c2.363-1.35,4.343-3.625,5.947-6.831
		c1.602-3.202,2.405-6.235,2.405-9.108v-6.325L-1890.869,374.53z"/>
	<path fill="#FFFFFF" d="M-1844.65,389.965c1.004,2.699,2.431,5.274,4.277,7.717c1.843,2.447,4.443,3.668,7.805,3.668
		c2.514,0,5.072-0.672,7.674-2.023c2.601-1.347,5.032-2.866,7.297-4.553c2.267-1.688,4.244-3.203,5.928-4.558
		c1.685-1.351,2.95-2.022,3.797-2.022c1.52,0,2.275,0.76,2.275,2.276c0,1.518-1.226,3.334-3.668,5.438
		c-2.448,2.113-5.266,4.177-8.453,6.203c-3.192,2.021-6.422,3.714-9.695,5.059c-3.273,1.347-5.743,2.024-7.421,2.024
		c-3.693,0-6.927-1.477-9.693-4.429c-2.769-2.953-5.162-6.788-7.174-11.516c-2.016-4.721-3.65-9.993-4.909-15.813
		c-1.255-5.818-2.261-11.511-3.021-17.08c-0.75-5.567-1.255-10.794-1.51-15.686c-0.25-4.893-0.377-8.686-0.377-11.391
		c0-4.38,0.254-10.243,0.756-17.583c0.505-7.337,1.681-14.548,3.521-21.635c1.851-7.086,4.529-13.197,8.058-18.348
		c3.521-5.145,8.308-7.715,14.348-7.715c4.361,0,7.926,1.604,10.694,4.807c2.769,3.207,4.993,7.002,6.671,11.385
		c1.676,4.394,2.81,8.985,3.397,13.796c0.586,4.806,0.882,8.813,0.882,12.014c0,7.26-0.631,14.552-1.889,21.888
		c-1.258,7.339-3.187,14.514-5.787,21.512c-2.603,6.999-5.876,13.62-9.818,19.859
		C-1834.63,379.506-1839.282,385.074-1844.65,389.965z M-1853.42,330.753c0,8.946,0.58,17.755,1.75,26.44
		c1.167,8.691,2.752,17.336,4.753,25.939c8.459-9.113,14.763-19.483,18.906-31.124c4.143-11.64,6.221-23.535,6.221-35.683
		c0-2.186-0.09-5.479-0.255-9.864c-0.169-4.386-0.72-8.729-1.644-13.03c-0.93-4.304-2.322-8.055-4.175-11.26
		c-1.86-3.206-4.39-4.811-7.592-4.811c-2.532,0-4.726,1.056-6.579,3.164c-1.857,2.109-3.461,4.852-4.808,8.227
		c-1.353,3.371-2.448,7.125-3.288,11.256c-0.848,4.137-1.521,8.186-2.025,12.147c-0.507,3.962-0.847,7.632-1.012,11.005
		C-1853.338,326.541-1853.42,329.067-1853.42,330.753z"/>
</g>
<g>
	<g>
		<path fill="#FFFFFF" d="M67.188,3.777c0-2.515,1.16-3.777,3.479-3.777c0.574,0.195,1.347,2.137,2.313,5.811
			c0.964,3.684,1.93,8.281,2.896,13.804c0.961,5.519,1.979,11.619,3.039,18.305c1.065,6.683,2.028,13.072,2.901,19.174
			c0.865,6.104,1.638,11.526,2.313,16.272c0.674,4.75,1.105,7.99,1.306,9.733l11.896-1.453c0.967,0,1.789,0.293,2.469,0.87
			c0.681,0.583,1.021,1.357,1.021,2.327c0,0.97-0.63,1.79-1.89,2.469c-1.263,0.68-2.714,1.213-4.358,1.599
			c-1.646,0.391-3.244,0.681-4.787,0.869c-1.552,0.195-2.711,0.391-3.484,0.582c1.93,7.361,2.994,15.4,3.186,24.117
			c0.191,8.714,0.291,16.852,0.291,24.404c0,4.651-0.143,10.124-0.432,16.416c-0.291,6.292-0.965,12.735-2.029,19.321
			c-1.061,6.583-2.508,13.17-4.342,19.76c-1.838,6.583-4.35,12.394-7.533,17.433c-3.188,5.032-7.094,9.15-11.726,12.349
			c-4.636,3.194-10.136,4.793-16.515,4.793c-8.105,0-15.107-2.567-20.996-7.7c-5.887-5.134-10.808-11.477-14.768-19.031
			c-3.958-7.556-6.854-15.541-8.687-23.968C0.919,169.827,0,162.223,0,155.443c0-12.588,1.978-22.998,5.94-31.233
			c3.959-8.231,9.354-14.913,16.215-20.049c6.852-5.129,14.912-9.149,24.184-12.056c9.264-2.904,19.208-5.423,29.831-7.553
			c-0.58-6.584-1.358-13.265-2.319-20.051c-0.968-6.779-1.935-13.605-2.896-20.483c-0.966-6.872-1.835-13.654-2.604-20.337
			C67.575,16.996,67.188,10.364,67.188,3.777z M76.996,92.105c-8.718,1.743-17.044,3.973-24.986,6.682
			c-7.945,2.714-14.87,6.441-20.774,11.188c-5.912,4.748-10.604,10.605-14.095,17.577c-3.481,6.974-5.228,15.499-5.228,25.568
			c0,5.034,0.623,11.139,1.887,18.306c1.26,7.163,3.341,14.042,6.25,20.627c2.904,6.583,6.582,12.252,11.037,17
			c4.455,4.743,9.883,7.118,16.272,7.118c5.036,0,9.299-1.601,12.782-4.795c3.49-3.196,6.393-7.265,8.717-12.204
			c2.327-4.938,4.166-10.559,5.519-16.852c1.356-6.297,2.328-12.493,2.912-18.596c0.58-6.102,0.963-11.914,1.162-17.433
			c0.19-5.522,0.291-10.022,0.291-13.51c0-5.617-0.342-11.427-1.023-17.435c-0.68-6.002-1.014-11.911-1.014-17.725
			c0-0.965,0-1.887,0-2.761C76.705,93.993,76.8,93.078,76.996,92.105z"/>
	</g>
	<g>
		<path fill="#FFFFFF" d="M90.675,84.158c0.391-0.965,1.841-1.838,4.359-2.614c2.516-0.772,5.323-1.454,8.428-2.032
			c3.094-0.582,6.05-1.02,8.858-1.31c2.806-0.29,4.696-0.435,5.669-0.435c1.547,0,2.317,0.871,2.317,2.613l-1.74,2.904
			c-7.36,2.522-15.104,3.778-23.239,3.778c-0.976,0-1.988-0.146-3.053-0.435S90.675,85.518,90.675,84.158z M98.231,41.156
			c1.933,0,3.194,1.844,3.774,5.521c0.584,3.684,0.873,8.234,0.873,13.656c0,3.877-0.049,7.992-0.147,12.346
			c-0.101,4.359-0.142,8.672-0.142,12.934c0,7.361,0.48,13.753,1.449,19.176c0.967,5.423,3.096,8.132,6.395,8.132
			c2.322,0,4.887-0.722,7.695-2.176c2.81-1.456,5.422-3.098,7.847-4.941c2.419-1.838,4.506-3.486,6.25-4.938
			c1.741-1.453,2.804-2.181,3.192-2.181c2.52,0,3.779,1.067,3.779,3.195c0,1.359-1.41,3.195-4.213,5.522
			c-2.811,2.323-6.01,4.553-9.59,6.683c-3.586,2.134-7.17,4.021-10.746,5.662c-3.59,1.647-6.25,2.474-7.996,2.474
			c-2.9,0-5.186-0.873-6.824-2.617c-1.65-1.742-2.908-3.965-3.779-6.684c-0.871-2.709-1.45-5.709-1.742-9.005
			c-0.291-3.291-0.436-6.39-0.436-9.3c0-1.932,0.045-3.674,0.145-5.228c0.096-1.551,0.146-2.904,0.146-4.068
			c0-0.967-0.051-2.564-0.146-4.795c-0.1-2.224-0.145-4.791-0.145-7.699c0-3.291,0.045-6.828,0.145-10.605
			c0.096-3.777,0.291-7.213,0.583-10.314c0.286-3.096,0.729-5.663,1.31-7.698C96.488,42.174,97.259,41.156,98.231,41.156z"/>
	</g>
</g>
<g>
	<g>
		<path fill="#FFFFFF" d="M715.865,4.074c0-2.515,1.16-3.777,3.479-3.777c0.574,0.195,1.348,2.137,2.313,5.811
			c0.965,3.684,1.93,8.281,2.896,13.804c0.961,5.519,1.98,11.619,3.039,18.305c1.066,6.683,2.029,13.072,2.902,19.174
			c0.865,6.104,1.637,11.526,2.313,16.272c0.674,4.75,1.105,7.99,1.307,9.733l11.895-1.453c0.967,0,1.789,0.293,2.469,0.87
			c0.682,0.583,1.021,1.357,1.021,2.327c0,0.97-0.629,1.79-1.889,2.469c-1.264,0.68-2.715,1.213-4.359,1.599
			c-1.646,0.391-3.244,0.681-4.787,0.869c-1.551,0.195-2.711,0.391-3.484,0.582c1.93,7.361,2.994,15.4,3.186,24.117
			c0.191,8.715,0.291,16.852,0.291,24.404c0,4.651-0.143,10.125-0.432,16.416c-0.291,6.293-0.965,12.735-2.029,19.321
			c-1.061,6.583-2.508,13.17-4.342,19.76c-1.838,6.583-4.35,12.394-7.533,17.433c-3.188,5.033-7.094,9.15-11.727,12.349
			c-4.635,3.194-10.135,4.793-16.514,4.793c-8.105,0-15.107-2.567-20.996-7.7c-5.887-5.134-10.809-11.476-14.768-19.031
			s-6.855-15.541-8.688-23.968c-1.834-8.427-2.752-16.032-2.752-22.811c0-12.587,1.979-22.997,5.939-31.233
			c3.959-8.23,9.354-14.913,16.215-20.049c6.852-5.129,14.912-9.149,24.184-12.056c9.266-2.904,19.209-5.423,29.83-7.553
			c-0.58-6.584-1.357-13.265-2.318-20.051c-0.969-6.779-1.934-13.605-2.896-20.483c-0.965-6.872-1.834-13.654-2.604-20.337
			C716.251,17.293,715.865,10.661,715.865,4.074z M725.671,92.402c-8.717,1.743-17.045,3.973-24.984,6.682
			c-7.945,2.714-14.871,6.441-20.775,11.188c-5.912,4.748-10.604,10.605-14.094,17.578c-3.482,6.973-5.229,15.498-5.229,25.567
			c0,5.034,0.623,11.14,1.887,18.306c1.26,7.163,3.342,14.043,6.25,20.627c2.904,6.584,6.582,12.252,11.037,17
			c4.455,4.743,9.883,7.118,16.271,7.118c5.037,0,9.299-1.6,12.783-4.795c3.488-3.196,6.393-7.265,8.717-12.204
			c2.326-4.937,4.166-10.559,5.518-16.851c1.357-6.298,2.328-12.494,2.912-18.597c0.58-6.102,0.963-11.914,1.162-17.433
			c0.191-5.522,0.291-10.022,0.291-13.51c0-5.617-0.342-11.427-1.021-17.435c-0.682-6.002-1.016-11.911-1.016-17.725
			c0-0.965,0-1.887,0-2.761C725.38,94.29,725.476,93.375,725.671,92.402z"/>
	</g>
	<g>
		<path fill="#FFFFFF" d="M739.351,84.455c0.391-0.965,1.842-1.838,4.359-2.614c2.516-0.772,5.324-1.454,8.428-2.032
			c3.094-0.582,6.051-1.02,8.859-1.31c2.805-0.29,4.695-0.435,5.668-0.435c1.547,0,2.318,0.871,2.318,2.613l-1.74,2.904
			c-7.361,2.522-15.105,3.778-23.24,3.778c-0.975,0-1.988-0.146-3.053-0.435S739.351,85.814,739.351,84.455z M746.908,41.453
			c1.932,0,3.193,1.844,3.773,5.521c0.584,3.684,0.873,8.234,0.873,13.656c0,3.877-0.049,7.992-0.146,12.346
			c-0.102,4.359-0.143,8.672-0.143,12.934c0,7.361,0.48,13.753,1.449,19.176c0.967,5.423,3.096,8.132,6.395,8.132
			c2.322,0,4.887-0.722,7.695-2.176c2.811-1.456,5.422-3.098,7.848-4.941c2.418-1.838,4.506-3.486,6.25-4.938
			c1.74-1.453,2.803-2.181,3.191-2.181c2.52,0,3.779,1.067,3.779,3.195c0,1.359-1.41,3.195-4.213,5.522
			c-2.811,2.323-6.01,4.553-9.59,6.683c-3.586,2.134-7.17,4.021-10.746,5.662c-3.59,1.647-6.25,2.474-7.996,2.474
			c-2.9,0-5.186-0.873-6.824-2.617c-1.65-1.741-2.908-3.965-3.779-6.684c-0.871-2.709-1.449-5.709-1.742-9.005
			c-0.291-3.291-0.436-6.39-0.436-9.3c0-1.932,0.045-3.674,0.145-5.228c0.096-1.551,0.146-2.904,0.146-4.068
			c0-0.967-0.051-2.564-0.146-4.795c-0.1-2.224-0.145-4.791-0.145-7.699c0-3.291,0.045-6.828,0.145-10.605
			c0.096-3.777,0.291-7.213,0.584-10.314c0.285-3.096,0.729-5.663,1.309-7.698C745.164,42.471,745.935,41.453,746.908,41.453z"/>
	</g>
</g>
</svg>
